<?xml version="1.0" encoding="utf-8" ?>
<svg baseProfile="tiny" height="600" shape-rendering="crispEdges" version="1.2" viewBox="-315.8105 -103.23957445598285 800.0 357.3181489119657" width="800" xmlns="http://www.w3.org/2000/svg" xmlns:ev="http://www.w3.org/2001/xml-events" xmlns:xlink="http://www.w3.org/1999/xlink"><defs /><g><path d="M 356.8705,114.57457445598286 L 411.3345,217.01757445598287 L 430.1085,252.07857445598285" fill="none" stroke="blue" stroke-width="3" /><path d="M 327.40749999999997,125.50057445598284 L 346.4045,158.46957445598284 L 346.4675,158.46357445598284 L 376.6105,210.87057445598285" fill="none" stroke="green" stroke-width="3" /><path d="M 317.8105,165.62857445598286 L 346.4045,158.46957445598284 L 346.4675,158.46357445598284 L 441.4325,134.50557445598284 L 441.3685,134.47557445598284 L 454.7045,131.26157445598284" fill="none" stroke="red" stroke-width="3" /><path d="M 389.2015,105.60157445598279 L 453.2495,229.31057445598285" fill="none" stroke="cyan" stroke-width="3" /><path d="M 465.7045,176.9775744559828 L 465.7125,176.9745744559828" fill="none" stroke="magenta" stroke-width="3" /><path d="M 335.66249999999997,186.24757445598286 L 466.2685,150.5975744559829" fill="none" stroke="yellow" stroke-width="3" /><path d="M 383.3935,222.99757445598289 L 466.0415,204.92457445598285" fill="none" stroke="black" stroke-width="3" /><path d="M 328.9085,213.13357445598285 L 482.18949999999995,172.66257445598288" fill="none" stroke="blue" stroke-width="3" /><path d="M 321.9335,142.21257445598286 L 438.0375,105.23957445598285" fill="none" stroke="green" stroke-width="3" /><path d="M 346.4045,158.46957445598287 L 346.4675,158.46357445598287" fill="none" stroke="red" stroke-width="3" /><path d="M 432.5625,118.95257445598284 L 473.3105,190.28057445598276" fill="none" stroke="cyan" stroke-width="3" /><path d="M 441.3685,134.47557445598284 L 441.4325,134.50557445598284" fill="none" stroke="magenta" stroke-width="3" /></g></svg>