<?xml version="1.0" encoding="utf-8" ?>
<svg baseProfile="tiny" height="600" shape-rendering="crispEdges" version="1.2" viewBox="-269.725 -65.32559583148296 800.0 394.3363497008582" width="800" xmlns="http://www.w3.org/2000/svg" xmlns:ev="http://www.w3.org/2001/xml-events" xmlns:xlink="http://www.w3.org/1999/xlink"><defs /><g><path d="M 471.13800000000003,206.26059583148296 L 447.13100000000003,159.38059583148296 L 396.36,167.91459583148296 L 432.29200000000003,130.41159583148294 L 408.28100000000006,83.53159583148296 L 454.497,107.23159583148296 L 490.42900000000003,69.72359583148295 L 483.059,121.87759583148295 L 529.2750000000001,145.57759583148294 L 478.50800000000004,154.11059583148295 L 471.13800000000003,206.26059583148296 L 471.13800000000003,206.26059583148296 Z" fill="none" stroke="blue" stroke-width="3" /><path d="M 337.862,255.59859583148295 L 337.8693677501109,254.59016586387662 L 337.8914694273666,253.5819512046047 L 337.9283003128719,252.5741671160316 L 337.979852542921,251.56702876859106 L 338.04611511067634,250.56075119484578 L 338.1270738685188,249.55554924357583 L 338.22271153106834,248.55163753390696 L 338.3330076788743,247.54923040948722 L 338.4579387627756,246.54854189272314 L 338.5974781089282,245.54978563908386 L 338.7515959245005,244.55317489148405 L 338.9202593040343,243.55892243475463 L 339.1034322364703,242.56724055021147 L 339.3010756128369,241.57834097033157 L 339.5131472346001,240.5924348335462 L 339.7396018226736,239.60973263916142 L 339.98039102708583,238.63044420241422 L 340.2354634373033,237.65477860967553 L 340.5047645932073,236.6829441738085 L 340.7882369967215,235.7151483896917 L 341.08582012408795,234.75159788991758 L 341.39745043879003,233.79249840067416 L 341.7230614051176,232.83805469782132 L 342.06258350237306,231.8884705631689 L 342.41594423971446,230.94394874096798 L 342.7830681716333,230.00469089462294 L 343.16387691406237,229.07089756363484 L 343.5582891611116,228.14276812078444 L 343.96622070242756,227.22050072956435 L 344.387584441173,226.3042923018697 L 344.82229041262286,225.39433845595548 L 345.2702458033724,224.49083347467055 L 345.7313549711538,223.59397026397662 L 346.20551946525643,222.70394031176116 L 346.692638047547,221.82093364695308 L 347.19260671408466,220.94513879894996 L 347.7053187173269,220.0767427573655 L 348.23066458892094,219.21593093210552 L 348.7685321630761,218.3628871137816 L 349.3188066005122,217.51779343446987 L 349.8813704129788,216.68083032882467 L 350.45610348833986,215.85217649555395 L 351.0428831162186,215.03200885926563 L 351.64158401419746,214.22050253269285 L 352.2520783545666,213.41783077930577 L 352.87423579161657,212.62416497631838 L 353.50792348946794,211.8396745780979 L 354.15300615043304,211.0645270799852 L 354.80934604390325,210.2988879825327 L 355.47680303575515,209.54292075616888 L 356.15523461827115,208.79678680629584 L 356.8444959405653,208.06064543882792 L 357.54443983951074,207.33465382617854 L 358.25491687116005,206.6189669737025 L 358.9757753426527,205.9137376866011 L 359.706861344603,205.21911653729697 L 360.44801878396083,204.53525183328546 L 361.19908941733905,203.86228958546974 L 361.95991288479956,203.2003734769864 L 362.73032674409154,202.5496448325278 L 363.51016650533467,201.91024258816785 L 364.29926566613847,201.2823032616983 L 365.09745574715237,200.66596092348095 L 365.9045663280374,200.06134716782225 L 366.7204250838523,199.46859108487718 L 367.54485782184656,198.8878192330871 L 368.37768851865155,198.31915561215865 L 369.2187393578638,197.76272163658857 L 370.06783076800946,197.21863610974097 L 370.924781460885,196.68701519848148 L 371.7894084702633,196.1679724083748 L 372.66152719095896,195.66161855945035 L 373.54095141824234,195.16806176254119 L 374.4274933875967,194.68740739620145 L 375.3209638148071,194.21975808420703 L 376.2211719363739,193.76521367364472 L 377.1279255502429,193.32387121359397 L 378.0410310568419,192.89582493440588 L 378.9602935004159,192.48116622758448 L 379.8855166106514,192.07998362627384 L 380.8165028445825,191.69236278635532 L 381.75305342876726,191.31838646815947 L 382.6949684017282,190.95813451879593 L 383.6420466566452,190.61168385510544 L 384.5940859842939,190.27910844723738 L 385.55088311621864,189.96047930285664 L 386.51223376813255,189.6558644519827 L 387.4779326835336,189.36532893246482 L 388.44777367752863,189.0889347760958 L 389.4215496808558,188.8267409953677 L 390.3990527840952,188.5788035708722 L 391.3800742820599,188.34517543934817 L 392.3644047183556,188.12590648237943 L 393.35183393010186,187.92104351574434 L 394.34215109280325,187.7306302794205 L 395.3351447653625,187.5547074282457 L 396.3306029352249,187.39331252323788 L 397.32831306364454,187.24648002357543 L 398.32806213106335,187.11424127924 L 399.32963668259265,186.99662452432284 L 400.3328228735872,186.89365487099684 L 401.3374065153033,186.80535430415458 L 402.34317312062956,186.73174167671456 L 403.3499079498821,186.67283270559585 L 404.35739605665265,186.6286399683625 L 405.365422333702,186.59917290053795 L 406.37377155888714,186.58443779359067 L 407.38222844111283,186.58443779359067 L 408.390577666298,186.59917290053795 L 409.3986039433473,186.6286399683625 L 410.4060920501179,186.67283270559585 L 411.4128268793704,186.73174167671456 L 412.41859348469666,186.80535430415458 L 413.42317712641284,186.89365487099684 L 414.4263633174074,186.99662452432284 L 415.4279378689366,187.11424127923996 L 416.4276869363555,187.24648002357543 L 417.4253970647751,187.39331252323788 L 418.42085523463754,187.5547074282457 L 419.4138489071968,187.7306302794205 L 420.40416606989817,187.92104351574434 L 421.3915952816444,188.1259064823794 L 422.3759257179401,188.34517543934817 L 423.3569472159047,188.57880357087217 L 424.33445031914425,188.8267409953677 L 425.3082263224714,189.08893477609578 L 426.2780673164664,189.36532893246482 L 427.2437662318674,189.6558644519827 L 428.2051168837814,189.96047930285664 L 429.16191401570615,190.27910844723738 L 430.1139533433548,190.6116838551054 L 431.06103159827177,190.95813451879593 L 432.00294657123277,191.31838646815947 L 432.93949715541754,191.6923627863553 L 433.8704833893486,192.07998362627382 L 434.7957064995841,192.48116622758448 L 435.71496894315806,192.89582493440585 L 436.62807444975715,193.32387121359395 L 437.53482806362615,193.76521367364472 L 438.4350361851929,194.21975808420703 L 439.3285066124032,194.68740739620142 L 440.2150485817576,195.16806176254119 L 441.09447280904106,195.66161855945035 L 441.96659152973666,196.16797240837477 L 442.831218539115,196.68701519848145 L 443.6881692319905,197.21863610974094 L 444.53726064213623,197.76272163658857 L 445.3783114813484,198.3191556121586 L 446.21114217815347,198.88781923308707 L 447.03557491614765,199.46859108487715 L 447.8514336719626,200.06134716782225 L 448.6585442528476,200.66596092348092 L 449.45673433386156,201.28230326169833 L 450.24583349466536,201.91024258816782 L 451.0256732559084,202.54964483252775 L 451.7960871152005,203.20037347698639 L 452.556910582661,203.8622895854697 L 453.30798121603914,204.53525183328543 L 454.049138655397,205.21911653729697 L 454.7802246573473,205.9137376866011 L 455.5010831288399,206.61896697370247 L 456.2115601604893,207.3346538261785 L 456.9115040594347,208.0606454388279 L 457.6007653817289,208.7967868062958 L 458.2791969642449,209.54292075616885 L 458.94665395609684,210.2988879825327 L 459.60299384956693,211.0645270799852 L 460.2480765105321,211.83967457809788 L 460.88176420838346,212.62416497631833 L 461.50392164543337,213.41783077930575 L 462.11441598580257,214.22050253269285 L 462.71311688378137,215.0320088592656 L 463.29989651166017,215.85217649555392 L 463.8746295870212,216.68083032882467 L 464.4371933994878,217.51779343446984 L 464.98746783692394,218.36288711378157 L 465.5253354110791,219.2159309321055 L 466.0506812826731,220.07674275736545 L 466.56339328591537,220.94513879894996 L 467.0633619524531,221.82093364695308 L 467.5504805347436,222.7039403117612 L 468.0246450288462,223.59397026397662 L 468.4857541966276,224.49083347467052 L 468.93370958737717,225.39433845595542 L 469.368415558827,226.30429230186965 L 469.78977929757247,227.22050072956435 L 470.1977108388884,228.1427681207844 L 470.5921230859376,229.07089756363487 L 470.97293182836665,230.0046908946229 L 471.34005576028557,230.94394874096795 L 471.69341649762697,231.88847056316885 L 472.0329385948824,232.83805469782126 L 472.35854956121,233.79249840067413 L 472.6701798759121,234.75159788991755 L 472.96776300327855,235.71514838969173 L 473.2512354067927,236.6829441738085 L 473.52053656269675,237.6547786096755 L 473.7756089729142,238.63044420241414 L 474.01639817732644,239.60973263916136 L 474.2428527653999,240.59243483354618 L 474.45492438716315,241.57834097033154 L 474.6525677635297,242.56724055021147 L 474.8357406959657,243.55892243475463 L 475.0044040754995,244.55317489148402 L 475.1585218910718,245.54978563908378 L 475.29806123722443,246.54854189272308 L 475.4229923211257,247.5492304094872 L 475.5332884689317,248.55163753390693 L 475.6289261314812,249.55554924357583 L 475.7098848893237,250.56075119484578 L 475.77614745707905,251.56702876859103 L 475.82769968712813,252.57416711603156 L 475.8645305726334,253.58195120460465 L 475.8866322498891,254.59016586387656 L 475.894,255.59859583148292 L 475.8866322498891,256.60702579908934 L 475.8645305726334,257.6152404583612 L 475.8276996871281,258.6230245469343 L 475.776147457079,259.63016289437485 L 475.7098848893237,260.63644046812016 L 475.6289261314812,261.6416424193901 L 475.5332884689317,262.64555412905895 L 475.42299232112566,263.6479612534787 L 475.2980612372244,264.64864977024274 L 475.1585218910718,265.647406023882 L 475.00440407549945,266.6440167714819 L 474.8357406959657,267.6382692282113 L 474.65256776352965,268.62995111275444 L 474.4549243871631,269.6188506926344 L 474.24285276539985,270.60475682941967 L 474.0163981773264,271.5874590238045 L 473.7756089729142,272.5667474605517 L 473.5205365626967,273.5424130532904 L 473.25123540679266,274.51424748915747 L 472.96776300327855,275.4820432732742 L 472.670179875912,276.44559377304836 L 472.35854956120994,277.40469326229174 L 472.0329385948824,278.3591369651446 L 471.69341649762697,279.308721099797 L 471.3400557602855,280.2532429219979 L 470.97293182836665,281.19250076834294 L 470.5921230859376,282.12629409933106 L 470.1977108388884,283.05442354218144 L 469.7897792975724,283.9766909334015 L 469.368415558827,284.89289936109617 L 468.93370958737717,285.80285320701046 L 468.48575419662757,286.7063581882953 L 468.0246450288462,287.60322139898926 L 467.55048053474354,288.4932513512048 L 467.063361952453,289.3762580160128 L 466.56339328591537,290.2520528640159 L 466.0506812826731,291.12044890560037 L 465.5253354110791,291.9812607308604 L 464.98746783692394,292.83430454918437 L 464.4371933994878,293.67939822849604 L 463.8746295870212,294.51636133414127 L 463.2998965116601,295.345015167412 L 462.71311688378137,296.1651828037003 L 462.11441598580257,296.97668913027303 L 461.50392164543337,297.77936088366016 L 460.8817642083834,298.57302668664755 L 460.2480765105321,299.357517084868 L 459.60299384956693,300.13266458298074 L 458.9466539560968,300.8983036804332 L 458.2791969642449,301.654270906797 L 457.6007653817289,302.4004048566701 L 456.9115040594347,303.136546224138 L 456.2115601604892,303.8625378367874 L 455.5010831288399,304.5782246892634 L 454.7802246573473,305.2834539763648 L 454.049138655397,305.97807512566897 L 453.30798121603914,306.6619398296805 L 452.556910582661,307.33490207749617 L 451.7960871152005,307.99681818597946 L 451.02567325590843,308.64754683043816 L 450.2458334946653,309.28694907479803 L 449.4567343338615,309.9148884012676 L 448.6585442528476,310.53123073948495 L 447.8514336719626,311.13584449514366 L 447.03557491614765,311.72860057808873 L 446.21114217815347,312.3093724298788 L 445.3783114813484,312.8780360508073 L 444.53726064213623,313.4344700263773 L 443.6881692319905,313.97855555322496 L 442.83121853911496,314.51017646448446 L 441.96659152973666,315.0292192545911 L 441.09447280904106,315.53557310351556 L 440.2150485817576,316.02912990042466 L 439.32850661240326,316.5097842667644 L 438.4350361851929,316.9774335787589 L 437.53482806362615,317.4319779893211 L 436.62807444975704,317.87332044937193 L 435.71496894315806,318.3013667285601 L 434.7957064995841,318.7160254353814 L 433.8704833893486,319.1172080366921 L 432.93949715541754,319.5048288766106 L 432.00294657123277,319.87880519480643 L 431.06103159827177,320.23905714417 L 430.11395334335475,320.5855078078605 L 429.1619140157061,320.91808321572853 L 428.20511688378133,321.2367123601093 L 427.2437662318674,321.54132721098324 L 426.2780673164664,321.83186273050103 L 425.30822632247134,322.1082568868701 L 424.33445031914425,322.3704506675982 L 423.35694721590477,322.6183880920937 L 422.37592571794005,322.85201622361774 L 421.3915952816444,323.07128518058653 L 420.40416606989817,323.27614814722153 L 419.4138489071968,323.46656138354535 L 418.4208552346375,323.6424842347202 L 417.4253970647751,323.803879139728 L 416.4276869363555,323.9507116393904 L 415.4279378689366,324.0829503837259 L 414.4263633174074,324.200567138643 L 413.42317712641284,324.303536791969 L 412.4185934846967,324.39183735881136 L 411.4128268793704,324.4654499862513 L 410.4060920501179,324.52435895737005 L 409.3986039433474,324.56855169460334 L 408.390577666298,324.59801876242796 L 407.38222844111283,324.6127538693752 L 406.37377155888714,324.6127538693752 L 405.365422333702,324.59801876242796 L 404.35739605665265,324.56855169460334 L 403.3499079498821,324.52435895737005 L 402.3431731206296,324.4654499862513 L 401.3374065153033,324.39183735881136 L 400.33282287358713,324.303536791969 L 399.3296366825926,324.200567138643 L 398.32806213106335,324.0829503837259 L 397.32831306364454,323.9507116393904 L 396.3306029352249,323.803879139728 L 395.3351447653625,323.6424842347202 L 394.3421510928032,323.46656138354535 L 393.3518339301018,323.27614814722153 L 392.3644047183556,323.07128518058653 L 391.3800742820599,322.85201622361774 L 390.39905278409526,322.6183880920937 L 389.4215496808558,322.3704506675982 L 388.44777367752863,322.1082568868701 L 387.4779326835336,321.83186273050114 L 386.51223376813255,321.54132721098324 L 385.55088311621864,321.2367123601093 L 384.5940859842939,320.91808321572853 L 383.6420466566452,320.5855078078605 L 382.6949684017282,320.23905714417003 L 381.75305342876726,319.87880519480643 L 380.81650284458243,319.5048288766106 L 379.8855166106514,319.1172080366921 L 378.9602935004159,318.7160254353814 L 378.041031056842,318.3013667285601 L 377.12792555024294,317.87332044937193 L 376.2211719363739,317.4319779893212 L 375.32096381480704,316.9774335787589 L 374.42749338759677,316.5097842667645 L 373.54095141824234,316.02912990042466 L 372.6615271909589,315.53557310351556 L 371.7894084702633,315.0292192545911 L 370.924781460885,314.51017646448446 L 370.06783076800946,313.97855555322496 L 369.21873935786374,313.4344700263773 L 368.37768851865155,312.8780360508073 L 367.5448578218465,312.3093724298788 L 366.7204250838523,311.72860057808873 L 365.9045663280374,311.13584449514366 L 365.09745574715237,310.53123073948495 L 364.29926566613847,309.9148884012676 L 363.51016650533467,309.28694907479803 L 362.73032674409154,308.64754683043816 L 361.9599128847995,307.99681818597946 L 361.19908941733905,307.33490207749617 L 360.44801878396083,306.6619398296805 L 359.706861344603,305.97807512566897 L 358.9757753426527,305.2834539763648 L 358.25491687116005,304.57822468926344 L 357.54443983951074,303.8625378367874 L 356.84449594056525,303.136546224138 L 356.1552346182711,302.4004048566701 L 355.4768030357551,301.654270906797 L 354.8093460439032,300.89830368043323 L 354.15300615043304,300.13266458298074 L 353.50792348946794,299.35751708486805 L 352.87423579161657,298.57302668664755 L 352.2520783545666,297.77936088366016 L 351.64158401419746,296.97668913027303 L 351.0428831162186,296.1651828037003 L 350.45610348833986,295.34501516741204 L 349.8813704129788,294.51636133414127 L 349.3188066005122,293.6793982284961 L 348.76853216307603,292.83430454918437 L 348.2306645889209,291.9812607308604 L 347.70531871732686,291.1204489056004 L 347.1926067140846,290.2520528640159 L 346.692638047547,289.37625801601286 L 346.20551946525643,288.4932513512048 L 345.7313549711538,287.60322139898926 L 345.2702458033724,286.7063581882953 L 344.8222904126228,285.80285320701046 L 344.387584441173,284.89289936109617 L 343.96622070242756,283.9766909334015 L 343.5582891611116,283.05442354218144 L 343.16387691406237,282.12629409933106 L 342.7830681716333,281.192500768343 L 342.41594423971446,280.253242921998 L 342.062583502373,279.308721099797 L 341.72306140511756,278.3591369651446 L 341.39745043879003,277.40469326229174 L 341.08582012408795,276.44559377304836 L 340.7882369967214,275.4820432732742 L 340.5047645932073,274.51424748915747 L 340.2354634373033,273.5424130532904 L 339.9803910270858,272.5667474605517 L 339.7396018226736,271.5874590238045 L 339.5131472346001,270.60475682941967 L 339.3010756128369,269.6188506926344 L 339.1034322364703,268.6299511127545 L 338.9202593040343,267.6382692282113 L 338.7515959245005,266.6440167714819 L 338.59747810892816,265.64740602388207 L 338.4579387627756,264.64864977024274 L 338.3330076788743,263.6479612534787 L 338.2227115310683,262.64555412905895 L 338.1270738685188,261.6416424193901 L 338.0461151106763,260.63644046812016 L 337.979852542921,259.63016289437485 L 337.9283003128719,258.6230245469343 L 337.8914694273666,257.6152404583612 L 337.8693677501109,256.60702579908934 L 337.86199999999997,255.59859583148295 L 337.862,255.59859583148295 Z" fill="none" stroke="green" stroke-width="3" /><path d="M 270.725,72.80759583148296 L 377.939,72.80759583148296 L 377.939,187.40059583148297 L 270.725,187.40059583148297 L 270.725,72.80759583148296 Z" fill="none" stroke="red" stroke-width="3" /></g></svg>