<?xml version="1.0" encoding="utf-8" ?>
<svg baseProfile="tiny" height="600" shape-rendering="crispEdges" version="1.2" viewBox="-326.4760002195835 -148.94952609755532 800.0 470.51984827951463" width="800" xmlns="http://www.w3.org/2000/svg" xmlns:ev="http://www.w3.org/2001/xml-events" xmlns:xlink="http://www.w3.org/1999/xlink"><defs /><g><path d="M 472.0999931395054,269.8195288441374 L 472.2322715818882,270.29029300429363 L 472.3396629393101,270.76542117812176 L 472.4223655760288,271.24479129530926 L 472.4805625975132,271.72826602675457 L 472.514452368021,272.2157233021452 L 472.52420273423195,272.70702579237957 L 472.5100120604038,273.2020514271452 L 472.47207871079445,273.7006628773405 L 472.4105705320835,274.2027304432585 L 472.3257011473179,274.70813968398113 L 472.2176231443882,275.21673801161785 L 472.0865654051304,275.7284186146452 L 471.9326805174351,276.24303653456707 L 471.7561668455601,276.7604773304655 L 471.5572227537632,277.2805960438444 L 471.3360313475132,277.8032706043913 L 471.0927757322788,278.3283713123991 L 470.8276390135288,278.8557608387663 L 470.540819555521,279.38531711318035 L 470.2325157225132,279.9169180653288 L 469.902880102396,280.45042636611004 L 469.5521415770054,280.98570468642254 L 469.18045273423195,281.52264621474285 L 468.7880271971226,282.06109836318035 L 468.37503281235695,282.60093906142254 L 467.94168320298195,283.1420462391569 L 467.4881309568882,283.6842825672819 L 467.01460495591164,284.227510716696 L 466.5212577879429,284.77162387587566 L 466.00828781723976,285.3164847157194 L 465.4758934080601,285.8619406483366 L 464.9242424070835,286.40790012099285 L 464.35354843735695,286.95421054579754 L 463.7639793455601,287.5007345936491 L 463.1557334959507,288.0473654530241 L 462.5289939939976,288.593965794821 L 461.8839592039585,289.14039828993816 L 461.2207969725132,289.68654086806316 L 460.53970566391945,290.2322562000944 L 459.8408836424351,290.7774222157194 L 459.12449875473976,291.32191684462566 L 458.3907493650913,291.86558749892254 L 457.6398185789585,292.4083273670866 L 456.8718895018101,292.9499991200163 L 456.0871757566929,293.4904806873991 L 455.28584519028664,294.0296347401335 L 454.4680809080601,294.56732394911785 L 453.634081274271,295.1034262440397 L 452.78403702378273,295.6378195545866 L 451.91812363266945,296.1703665516569 L 451.03653183579445,296.7009299061491 L 450.13945999741554,297.2294028065397 L 449.22708359360695,297.75563266493816 L 448.2996009886265,298.279512669821 L 447.3571952879429,298.80089023329754 L 446.4000495970249,299.3196585438444 L 445.42835465073586,299.835665013571 L 444.4423088133335,300.3488028309538 L 443.4420799314976,300.8589194081022 L 442.4278739988804,301.36590793349285 L 441.39986649155617,301.86961581923504 L 440.35825577378273,302.36993625380535 L 439.3032173216343,302.8667319081022 L 438.23494949936867,303.3598654530241 L 437.1536354124546,303.8492148182585 L 436.0594657957554,304.3346426747038 L 434.9526313841343,304.81602695204754 L 433.83330765366554,305.2932455799772 L 432.70169296860695,305.7661612293913 L 431.55797043442726,306.2346518299772 L 430.40233078598976,306.6985647938444 L 429.23496475815773,307.1577933094694 L 428.0560554563999,307.61220004775066 L 426.8657859861851,308.06166293837566 L 425.664354711771,308.5060293934538 L 424.4519447386265,308.94520786025066 L 423.22873917222023,309.3790304920866 L 421.9949363768101,309.8074057362272 L 420.75071945786476,310.23016574599285 L 419.49627152085304,310.64720370986004 L 418.2317833006382,311.0583822987272 L 416.9574455320835,311.463594701071 L 415.67344132065773,311.8626730702116 L 414.37996140122414,312.25551059462566 L 413.077196508646,312.64198520400066 L 411.7653297483921,313.021944310446 L 410.44454422593117,313.39528110243816 L 409.115038305521,313.7618429920866 L 407.7770027220249,314.12152316786785 L 406.45120468735695,314.4688437245085 L 405.12864914536476,314.8063528797819 L 403.8095420897007,315.1340658924772 L 402.49412003159523,315.45201328017254 L 401.18260422348976,315.7601797840788 L 399.87523117661476,316.0586264393522 L 398.5722068846226,316.3473227284147 L 397.2737754881382,316.62632968642254 L 395.9801506102085,316.8956320545866 L 394.69156113266945,317.15526035048504 L 393.40823593735695,317.4052298329069 L 392.1303962767124,317.6455557606413 L 390.8582710325718,317.8762533924772 L 389.59208527207375,318.09735324599285 L 388.3320602476597,318.30885532118816 L 387.0784286558628,318.5107901356413 L 385.83140793442726,318.7031729481413 L 384.59123077988625,318.88600375868816 L 383.35812225937843,319.0593283436491 L 382.13230362534523,319.22313144423504 L 380.9140037596226,319.37745883681316 L 379.70344391465187,319.5223105213835 L 378.5008567869663,319.65770175673504 L 377.30646362900734,319.783663060446 L 376.1204895079136,319.9001944325163 L 374.94315949082375,320.00734164931316 L 373.77470245957375,320.10508945204754 L 372.61534348130226,320.19346835829754 L 371.4653038084507,320.2724936268522 L 370.32481613755226,320.3421957752897 L 369.1940979063511,320.40257480361004 L 368.0733818113804,320.4536459706022 L 366.96288910508156,320.4954397938444 L 365.86284866929054,320.52797153212566 L 364.77348175644875,320.551241185446 L 363.6950172483921,320.5652792713835 L 362.6276802122593,320.5701163075163 L 361.571695715189,320.56573703505535 L 360.52728882431984,320.55218723036785 L 359.49468460679054,320.52948215224285 L 358.474111944437,320.4976065418913 L 357.46579399704933,320.4566214344694 L 356.46995583176613,320.40651157118816 L 355.4868244230747,320.34730746962566 L 354.5166248381138,320.279024388571 L 353.5595840513706,320.20167758681316 L 352.61592331528664,320.11529758193035 L 351.6858734190464,320.0198691151335 L 350.76965752243996,319.9154379627897 L 349.867500692606,319.80201938368816 L 348.97962990403175,319.6796133778288 L 348.106270223856,319.5482657215788 L 347.2476467192173,319.4079611561491 L 346.4039844572544,319.25873019911785 L 345.5755104124546,319.1005881092741 L 344.76244965195656,318.9335501454069 L 343.96502724289894,318.7576468250944 L 343.18347015976906,318.57289340712566 L 342.4180034697056,318.37928989150066 L 341.6688522398472,318.17686679579754 L 340.93624153733253,317.9656241200163 L 340.22039833664894,317.7456076405241 L 339.52154675126076,317.5168020985319 L 338.8399137556553,317.2792532704069 L 338.1757244169712,317.0329611561491 L 337.5292047560215,316.7779562733366 L 336.9005788862705,316.5142386219694 L 336.2900737822056,316.24183871962566 L 335.69791451096535,315.96075656630535 L 335.1243270933628,315.67103793837566 L 334.5695356428623,315.37266757704754 L 334.0337680876255,315.06569125868816 L 333.5172485411167,314.7500937245085 L 333.02020302414894,314.4259360096647 L 332.54285660386086,314.0931875965788 L 332.08543530106544,313.7519095204069 L 331.6481651365757,313.40208652236004 L 331.23127070069313,313.0437338612272 L 330.8349784910679,312.67689731337566 L 330.45951333642006,312.30157687880535 L 330.10510125756264,311.91778781630535 L 329.77196779847145,311.5255453846647 L 329.46033850312233,311.1248801014616 L 329.1704389154911,310.715791966696 L 328.9024948179722,310.298311497946 L 328.6567317545414,309.87245395400066 L 328.433375030756,309.43821933486004 L 328.2326505482197,308.9956381581022 L 328.054783731699,308.54474094130535 L 327.90000024437904,308.0855276844694 L 327.76772728562355,307.61476352431316 L 327.66033378243446,307.13963535048504 L 327.57763186097145,306.66026523329754 L 327.51943376660347,306.1767905018522 L 327.4855515062809,305.6893332264616 L 327.47579726576805,305.1980307362272 L 327.48998323082924,304.7030051014616 L 327.52792170643806,304.2043936512663 L 327.589424520731,303.7023184559538 L 327.6743041574955,303.19691684462566 L 327.78237250447273,302.6883108875944 L 327.9134419262409,302.1766379139616 L 328.06732442975044,301.66200473525066 L 328.24383214116096,301.1445791981413 L 328.44277742505074,300.62445285536785 L 328.66397228837013,300.10179355361004 L 328.9072288572788,299.5766928456022 L 329.1723591387272,299.049288060446 L 329.45917573571205,298.5197317860319 L 329.7674905359745,297.9881308338835 L 330.09711542725563,297.4546225331022 L 330.44786301255226,296.9193442127897 L 330.8195451796055,296.3824179432585 L 331.2119745314121,295.8439505360319 L 331.62496224045753,295.3041098377897 L 332.0583213865757,294.7630179188444 L 332.5118640959263,294.2207815907194 L 332.9854020178318,293.6775381825163 L 333.4787472784519,293.1334250233366 L 333.99171248078346,292.5885794422819 L 334.52410927414894,292.04310825087566 L 335.07575073838234,291.4971487782194 L 335.64644852280617,290.9508536122038 L 336.2360137999058,290.40431430556316 L 336.84425964951515,289.85768344618816 L 337.4709991514683,289.31109836318035 L 338.1160425245762,288.76466586806316 L 338.77920284867287,288.21852328993816 L 339.4602932035923,287.67279269911785 L 340.1591238081455,287.12762668349285 L 340.87550869584084,286.5831320545866 L 341.6092580854893,286.0394614002897 L 342.36018601059914,285.49672153212566 L 343.1281036436558,284.955049779196 L 343.91282311081886,284.41456821181316 L 344.7141574919224,283.87542941786785 L 345.5319179594517,283.3377249500944 L 346.3659156858921,282.80162265517254 L 347.2159656584263,282.26722934462566 L 348.08187714219093,281.7346976063444 L 348.96346512436867,281.20411899306316 L 349.8605388700962,280.67564609267254 L 350.77291336655617,280.1494162342741 L 351.70039787888527,279.6255362293913 L 352.64280739426613,279.1041586659147 L 353.59995117783546,278.58539035536785 L 354.57164230942726,278.0693838856413 L 355.55769577622414,277.55626132704754 L 356.5579189360142,277.04612949111004 L 357.57212868332863,276.53914859511394 L 358.6001342833042,276.0354330799772 L 359.6417488157749,275.53512027480144 L 360.6967834532261,275.03832462050457 L 361.7650512754917,274.5451910755827 L 362.8463615477085,274.0558417103483 L 363.94053116440773,273.5704062245085 L 365.04737320542336,273.0890143177702 L 366.16669312119484,272.61180331923504 L 367.29830780625343,272.138887669821 L 368.44202652573586,271.67040469862957 L 369.59766617417336,271.20648410536785 L 370.76503601670265,270.74725558974285 L 371.94394531846046,270.2928488514616 L 373.13421097397804,269.84339359023113 L 374.33564606308937,269.3990195057585 L 375.5480560362339,268.95984866835613 L 376.7712577879429,268.52601840712566 L 378.0050643980503,268.09765079237957 L 379.2492851316929,267.67489078261394 L 380.5037330687046,267.2578451893522 L 381.7682174742222,266.84666660048504 L 383.04255905747414,266.4414618275358 L 384.32655945420265,266.0423834583952 L 385.62003937363625,265.6495383045866 L 386.92280808091164,265.26307132460613 L 388.23467484116554,264.8831045887663 L 389.55545273423195,264.50977542616863 L 390.8849586546421,264.14320590712566 L 392.22300186753273,263.7835257313444 L 393.54879227280617,263.4362051747038 L 394.8713554441929,263.09869601943035 L 396.1904548704624,262.77098300673504 L 397.5058769285679,262.45304324843426 L 398.81739273667336,262.1448691151335 L 400.1247734129429,261.84643008925457 L 401.42779007554054,261.55772617079754 L 402.72622910141945,261.27872684218426 L 404.01985397934914,261.0094244740202 L 405.30843582749367,260.74979617812176 L 406.5917686522007,260.4998266956999 L 407.8696006834507,260.2595007679655 L 409.14173355698586,260.02879550673504 L 410.40791550278664,259.8076956532194 L 411.6679405272007,259.5961935780241 L 412.9215721189976,259.394258763571 L 414.16858902573586,259.2018835804655 L 415.40876999497414,259.0190451405241 L 416.64187851548195,258.8457281849577 L 417.8676933348179,258.6819174549772 L 419.0860008299351,258.52759769179363 L 420.2965568602085,258.3827460072233 L 421.4991401731968,258.24735477187176 L 422.69353714585304,258.1213934681608 L 423.8795112669468,258.004854466696 L 425.05684128403664,257.89771487929363 L 426.22529831528664,257.79996707655926 L 427.3846611082554,257.71158817030926 L 428.5346931517124,257.63255527236004 L 429.6751884520054,257.56286075331707 L 430.8059028685093,257.50248172499676 L 431.92661514878273,257.45140292861004 L 433.0371116697788,257.40960910536785 L 434.1371559202671,257.37708499648113 L 435.22651901841164,257.3538077137663 L 436.30498734116554,257.3397696278288 L 437.37232437729836,257.3349402210905 L 438.42830887436867,257.3393042347624 L 439.47271195054054,257.3528616688444 L 440.5053123533726,257.37557437636394 L 441.52588883042336,257.407442357321 L 442.5342048704624,257.4484350941374 L 443.5300468504429,257.4985373280241 L 444.5131782591343,257.5577414295866 L 445.48337784409523,257.6260245106413 L 446.44041672348976,257.7033713123991 L 447.3840736448765,257.78975894667644 L 448.314127355814,257.8851797840788 L 449.2303413450718,257.98961093642254 L 450.13250198960304,258.1030295155241 L 451.02037277817726,258.2254355213835 L 451.89373245835304,258.356790807028 L 452.75235214829445,258.4970953724577 L 453.5960182249546,258.64632632948894 L 454.4244865477085,258.80446078993816 L 455.2375511229038,258.9714911244108 L 456.0349754393101,259.14740207411785 L 456.8165306150913,259.33216312148113 L 457.5820030272007,259.52576663710613 L 458.3311485350132,259.72818973280926 L 459.06375351548195,259.939424779196 L 459.7796043455601,260.1594488880827 L 460.4784568846226,260.38824680068035 L 461.1600822508335,260.62579562880535 L 461.8242820799351,260.87208774306316 L 462.4707969725132,261.1271002552702 L 463.0994285643101,261.3908179066374 L 463.7099327147007,261.66321780898113 L 464.30208054184914,261.9442923329069 L 464.8756736814976,262.23401859023113 L 465.430467993021,262.5323813221647 L 465.9662345945835,262.83936526991863 L 466.48274460434914,263.15494754530926 L 466.9797996580601,263.47912051894207 L 467.45714035630226,263.8118613026335 L 467.9145683348179,264.1531470081999 L 468.35183945298195,264.50297000624676 L 468.7687248289585,264.86131503798504 L 469.16502609848976,265.2281515858366 L 469.54048386216164,265.60347964980144 L 469.8948997557163,265.98726871230144 L 470.2280296385288,266.37950351454754 L 470.53965988755226,266.7801764271452 L 470.8295616209507,267.1892569325163 L 471.0975059568882,267.6067450306608 L 471.3432640135288,268.03260257460613 L 471.5666221678257,268.4668295643522 L 471.7673515379429,268.9094031117155 L 471.94522324204445,269.3603079579069 L 472.0999931395054,269.8195288441374 Z" fill="none" stroke="blue" stroke-width="3" /><path d="M 426.59700241684914,186.58052661635415 L 426.3897117674351,185.5320036671354 L 426.1534370481968,184.4941389820768 L 425.8885520994663,183.46697070815102 L 425.5954536497593,182.45054080702798 L 425.2745079100132,181.44489886977212 L 424.92611160874367,180.45008113600747 L 424.55063858628273,179.46613528944985 L 424.14847031235695,178.49310138442056 L 423.72000351548195,177.53102519728677 L 423.26560440659523,176.57995059706704 L 422.7856620848179,175.63991763808266 L 422.2805580198765,174.7109701893522 L 421.7506736814976,173.79315402724282 L 421.19639816880226,172.88650920607583 L 420.6181129515171,171.9910815022184 L 420.01619186997414,171.10691287734048 L 419.391031652689,170.2340472004606 L 418.74299851059914,169.37252643324868 L 418.0943626463413,168.54706027724282 L 417.4329246580601,167.73799922682778 L 416.7586921751499,166.94539478041665 L 416.0716804563999,166.16929462172524 L 415.37190476059914,165.40974834181802 L 414.6593727171421,164.6668045780851 L 413.9340995848179,163.94051101424233 L 413.19610062241554,163.23091628767983 L 412.4453834593296,162.53807094313638 L 411.68197098374367,161.86202266432778 L 410.90586319565773,161.2028210423185 L 410.11707535386086,160.56051471449868 L 409.3156227171421,159.93515136458413 L 408.50152054429054,159.3267805836393 L 407.6747764647007,158.73545100905434 L 406.83541336655617,158.1612122318937 L 405.9834236204624,157.6041128895475 L 405.1188377439976,157.0642006657316 L 404.24166336655617,156.5415251515104 L 403.35191574692726,156.03613546111123 L 402.44959488511086,155.54808023192422 L 401.5347312986851,155.07740762450234 L 400.6073249876499,154.62416722991006 L 399.66739121079445,154.1884076855375 L 398.71494522690773,153.7701776287748 L 397.7500022947788,153.36952617384927 L 396.73133316636086,152.97106960036294 L 395.7080253660679,152.59598496176736 L 394.6800254881382,152.2445419094755 L 393.64729538559914,151.91700937964455 L 392.609781652689,151.6136572621061 L 391.5674232542515,151.33475449301736 L 390.520182043314,151.08057096220986 L 389.46800461411476,150.8513759634687 L 388.41084137558937,150.647438790579 L 387.34864273667336,150.4690289757444 L 386.28135910630226,150.3164159319593 L 385.20893707871437,150.1898689530088 L 384.1313308775425,150.08965769030587 L 383.0484870970249,150.01605155684487 L 381.96035996079445,149.9693198464109 L 380.86689606308937,149.94973197199838 L 379.7680496275425,149.95755746581094 L 378.6637672483921,149.9930656216337 L 377.55399933457375,150.0565260908796 L 376.46795120835304,150.14463665701882 L 375.3911079466343,150.2569734118177 L 374.3235458433628,150.39354362704293 L 373.2653526365757,150.55435481287972 L 372.216600805521,150.73941424109475 L 371.1773742735386,150.94872918345467 L 370.147753149271,151.18230726935403 L 369.1278137266636,151.44015577055947 L 368.11763992905617,151.72228195883767 L 367.1173118650913,152.02869322516457 L 366.1269020140171,152.35939719893472 L 365.1465019285679,152.71440103270547 L 364.17618027329445,153.09371211745278 L 363.2160247862339,153.4973380825712 L 362.2661079466343,153.92528608061806 L 361.32651749253273,154.37756326415078 L 360.3973297178745,154.85417726256387 L 359.47862473130226,155.35513570525185 L 358.5704826414585,155.88044526793496 L 357.6729816496372,156.43011405684487 L 356.7862037718296,157.0041487477018 L 355.9102272093296,157.60255840041177 L 355.0451320707798,158.22534778334634 L 354.1910003721714,158.87252643324868 L 353.375141531229,159.52236488081948 L 352.5795921385288,160.18801143385903 L 351.80427208542824,160.86931445815102 L 351.0491012632847,161.56612327315347 L 350.31400337815285,162.27828815199868 L 349.5988945066929,163.00565650679604 L 348.9036983549595,163.74807765700356 L 348.2283367216587,164.50540187575356 L 347.57272759079933,165.27747752882973 L 346.93679466843605,166.0641539356901 L 346.32045593857765,166.865278508444 L 345.7236351072788,167.68070438124673 L 345.14625015854836,168.5102751515104 L 344.5882228910923,169.35384586073891 L 344.0494751036167,170.21126201369302 L 343.52992859482765,171.0823729298307 L 343.02949944138527,171.96702792861 L 342.5481132566929,172.86507632948891 L 342.0856889784336,173.77636745192544 L 341.6421474516392,174.7007506153776 L 341.2174095213413,175.63807513930337 L 340.8113950788975,176.58818843581216 L 340.424026876688,177.5509417317106 L 340.055223852396,178.52618243910806 L 339.70490875840187,179.51376178481118 L 339.3730005323887,180.5135252735807 L 339.05657997727394,181.544908787985 L 338.7677873671055,182.57828357436196 L 338.50568905472755,183.61358859755532 L 338.26934853196144,184.65075900771157 L 338.057834059,185.6897299549772 L 337.8702100813389,186.73043658949868 L 337.70554199814796,187.77281787611977 L 337.5628961622715,188.8168051502897 L 337.4413389265537,189.8623373768522 L 337.33993473649025,190.90934970595376 L 337.2577499449253,191.95777728774087 L 337.19385090470314,193.00755527236 L 337.14730206131935,194.05861880995766 L 337.1171697676182,195.1109068653776 L 337.10252037644386,196.16435458876626 L 337.102418333292,197.21889713027016 L 337.11593094468117,198.27446582533852 L 337.14212265610695,199.33100345351235 L 337.1800598204136,200.38844516493813 L 337.228807836771,201.44671848036782 L 337.28743305802345,202.5057699940397 L 337.3549999296665,203.5655272267057 L 337.43566647171974,204.65749957777993 L 337.5293335020542,205.748823430319 L 337.6355003416538,206.83933856703774 L 337.7536672651768,207.92889621474282 L 337.88333359360695,209.0173437855436 L 338.02400055527687,210.1045248768522 L 338.1751665174961,211.19029071547524 L 338.3363336622715,212.27448871352212 L 338.5070003569126,213.3569662831022 L 338.68666687607765,214.43756320693032 L 338.8748334944248,215.51613834120766 L 339.0710004866123,216.59252383925454 L 339.280885130167,217.70775821425454 L 339.4955247938633,218.82223727919595 L 339.71532955765724,219.9358465931608 L 339.9407085478306,221.04847934462563 L 340.17206993699074,222.1600210926725 L 340.40982285141945,223.27036502577798 L 340.65437546372414,224.3794043324186 L 340.90613690018654,225.48700931288735 L 341.1655172407627,226.59308078505532 L 341.4329246580601,227.69751193739907 L 341.70876732468605,228.8001806996061 L 341.9934553205967,229.90098026015298 L 342.28739681839943,230.99979617812173 L 342.5909999907017,232.09652927138345 L 342.8764652311802,233.0971777699186 L 343.1683486998081,234.09513309218423 L 343.4666523039341,235.0903876087858 L 343.77137795090675,236.0829413197233 L 344.0825256407261,237.0728094837858 L 344.40009728074074,238.05997684218423 L 344.72409668564796,239.0444433949186 L 345.05452385544777,240.02622440077798 L 345.3913806974888,241.00531223036782 L 345.734667211771,241.98170688368813 L 346.08438912034035,242.95540836073891 L 346.44054451584816,243.92641666152016 L 346.8031372129917,244.89473941542641 L 347.17216911911964,245.86036899306313 L 347.5476383268833,246.82330539443032 L 347.92955055832863,247.78356387831704 L 348.3179058134556,248.74112918593423 L 348.7127059996128,249.69600131728188 L 349.11395302414894,250.64819553114907 L 349.521646887064,251.59770419814126 L 349.9357914030552,252.54452731825845 L 350.3563884794712,253.48866489150063 L 350.783438116312,254.43011691786782 L 351.2169422209263,255.36889102675454 L 351.65690460801125,256.3049795887663 L 352.1033233702183,257.23839023329754 L 352.55620232224464,258.1691153309538 L 353.015543371439,259.09716251112957 L 353.4813484251499,260.0225317738249 L 353.95361748337746,260.9452231190397 L 354.43235436081886,261.8652365467741 L 354.91755905747414,262.782572057028 L 355.4092334806919,263.697237279196 L 355.9073795378208,264.60921695448894 L 356.4120010435581,265.518526341696 L 357.01205483078957,266.5740225575163 L 357.6257785856724,267.62215640761394 L 358.2509998381138,268.66390445448894 L 358.8855575621128,269.7002280018522 L 359.52727738022804,270.7321112415983 L 360.1740020811558,271.7605231068327 L 361.4120010435581,273.67652347304363 L 362.1953758299351,274.8703100941374 L 363.002001196146,276.0837729237272 L 363.74187698960304,277.1738760731413 L 364.324999243021,277.997530247946 L 364.96709671616554,278.8723624012663 L 365.60486832261086,279.7505820057585 L 366.24119034409523,280.629854466696 L 366.8789314329624,281.5078451893522 L 367.52096024155617,282.38221957900066 L 368.17015305161476,283.2506430409147 L 368.8293747007847,284.11078098036785 L 369.5015014708042,284.9602835438444 L 370.1894020140171,285.796846654196 L 370.89594879746437,286.61810519911785 L 371.62401047348976,287.42173984267254 L 372.3764595091343,288.2054159901335 L 373.1561645567417,288.96678378798504 L 373.9660018980503,289.7035239002897 L 374.8222259581089,290.4043753407194 L 375.695116430521,291.02174594618816 L 376.5826896727085,291.55504062392254 L 377.4829620420933,292.0036947987272 L 378.39395371079445,292.3671438954069 L 379.31368485093117,292.6448080799772 L 380.2401756346226,292.8361075184538 L 381.17144241929054,292.94049289443035 L 382.1055091917515,292.9573691151335 L 383.04038849473,292.8861563465788 L 383.9741043150425,292.72630527236004 L 384.90467301011086,292.47723605849285 L 385.8301147520542,292.13836887099285 L 386.7484497129917,291.7091391346647 L 387.6576980650425,291.18898227431316 L 388.55587235093117,290.57728793837566 L 389.4410003721714,289.87352206923504 L 390.26436081528664,289.1397269032194 L 391.0534080564976,288.3775961659147 L 391.8104270994663,287.5892355702116 L 392.5377143919468,286.7767050526335 L 393.23755875229836,285.94212558486004 L 393.912271887064,285.0875723622038 L 394.564127355814,284.21515109755535 L 395.1954292356968,283.3269522450163 L 395.8084663450718,282.4250509998991 L 396.4055351316929,281.5115683338835 L 396.988932043314,280.5885794422819 L 397.5609382688999,279.65819003798504 L 398.12386551499367,278.72247531630535 L 398.6800025999546,277.7835257313444 L 399.2514595091343,276.8010046742155 L 399.80909195542336,275.81888797499676 L 400.35420456528664,274.8367636463835 L 400.8881095945835,273.8541968128874 L 401.41211929917336,272.8707525990202 L 401.927538305521,271.8860113880827 L 402.4356864988804,270.8995383045866 L 402.93787613511086,269.91089847304363 L 403.43541184067726,268.91967227675457 L 403.92959824204445,267.92543246962566 L 404.42176285386086,266.9277365467741 L 404.9132026731968,265.92616489150066 L 405.40523758530617,264.9202902577116 L 405.8991722166538,263.90967776991863 L 406.39632645249367,262.893900182028 L 406.897997289896,261.87252261855144 L 408.1059974730015,259.50452640273113 L 408.7861503660679,258.196016576071 L 409.45955887436867,256.90612247206707 L 410.1021217405796,255.6732733509733 L 410.68977585434914,254.53593662001626 L 411.1984275877476,253.53253391005532 L 411.6039985716343,252.7015249989225 L 412.0475029051304,251.7546484730436 L 412.4841331541538,250.80513217665688 L 412.91409531235695,249.85305240370766 L 413.33758011460304,248.89850833632485 L 413.7547859251499,247.94156863905923 L 414.16590347886086,246.9823096058561 L 414.5711387693882,246.02082278944985 L 414.97068253159523,245.0571844837858 L 415.36472550034523,244.09147098280923 L 415.75347366929054,243.12376620986 L 416.13711777329445,242.15415408827798 L 416.51584854722023,241.18270328261391 L 416.88987198472023,240.20951297499673 L 417.25937882065773,239.2346518299772 L 417.624559789896,238.25820377089516 L 417.9856208860874,237.28024509169595 L 418.34275284409523,236.30085971571938 L 418.69615402817726,235.32013156630532 L 419.0460151731968,234.33812930800454 L 419.39254227280617,233.35495212294595 L 419.73591843247414,232.37066867568032 L 420.07634964585304,231.38535526015298 L 420.4140342772007,230.3991034290983 L 420.74915543198586,229.41198947646157 L 421.08191910386086,228.42409732558266 L 421.412516027689,227.43550327040688 L 421.74114456772804,226.44628360487954 L 422.06800308823586,225.456529881735 L 422.40406265854836,224.4213202259733 L 422.73145523667336,223.38276889540688 L 423.0499443113804,222.3409750721647 L 423.3593238890171,221.29603793837563 L 423.65938034653664,220.24804904677407 L 423.9498924314976,219.19711520888345 L 424.2306388914585,218.1433432362272 L 424.5014137327671,217.08681705214516 L 424.7620033323765,216.02765109755532 L 425.0121788084507,214.96593692519204 L 425.2517341673374,213.90177371718423 L 425.48044815659523,212.83526828505532 L 425.69809952378273,211.7665121815397 L 425.9044899046421,210.69560840346352 L 426.0993904173374,209.62265994765298 L 426.2825874388218,208.5477621815397 L 426.4538597166538,207.47101810194985 L 426.61300125718117,206.39252689101235 L 426.7618660032749,205.29555728652016 L 426.8972877562046,204.196821477194 L 427.018473058939,203.09656360365884 L 427.1246360838413,201.99503543593423 L 427.21499863266945,200.89248111464516 L 427.28877487778664,199.78915622450845 L 427.3451866209507,198.68530490614907 L 427.38343277573586,197.58117892958657 L 427.402750402689,196.4770262501432 L 427.4023384153843,195.37309482314126 L 427.38142624497414,194.26963641860024 L 427.33922043442726,193.16689517714516 L 427.2749427855015,192.06512668349282 L 427.1878074705601,190.9645750782682 L 427.0770286619663,189.8654883167936 L 426.9418205320835,188.76811816908852 L 426.78140488266945,187.6727164051725 L 426.59500351548195,186.57952716567056 L 426.5970002195835,186.58052609755532 Z" fill="none" stroke="green" stroke-width="3" /><path d="M 372.8500007688999,174.05952670790688 L 373.8016494810581,173.48329951979653 L 374.7754310667515,172.9631903431608 L 375.7702049314976,172.49765804030434 L 376.7848152220249,172.08515765883462 L 377.81812515854836,171.72415187575356 L 378.86898270249367,171.41309383131997 L 379.93624725937843,171.15044429518716 L 381.01876679062843,170.9346621296598 L 382.11540070176125,170.76420238234536 L 383.2250007688999,170.63752582289712 L 383.4140002195835,170.6375260975553 L 385.4301246702671,170.5992758534147 L 387.36599960923195,170.88652637221352 L 388.4953865110874,171.20175578810708 L 389.5674652159214,171.57008197524087 L 390.5829032957554,171.98907306410806 L 391.5423606932163,172.45629527785317 L 392.44649735093117,172.96931293227212 L 393.29598465561867,173.52569415785806 L 394.09148636460304,174.12300517775552 L 394.83365097641945,174.7588103077604 L 395.52315750718117,175.4306795857145 L 396.1606697142124,176.1361754200651 L 396.74683609604836,176.87286784865395 L 397.28232803940773,177.638321187277 L 397.7678169310093,178.43010165907876 L 398.2039512693882,179.24577548720376 L 398.5914024412632,180.08291080214516 L 398.9308342039585,180.93907191969888 L 399.22291031479836,181.81182697035806 L 399.46829453110695,182.6987402699186 L 399.667642980814,183.59737994887368 L 399.8216270506382,184.50531223036782 L 399.9309028685093,185.42010333754556 L 399.996141821146,186.33931949355141 L 400.01800003647804,187.26052692152993 L 399.9964088499546,188.3504965565397 L 399.9307884275913,189.4235594532682 L 399.8213066160679,190.47940662123696 L 399.66814652085304,191.51771381117837 L 399.4714607298374,192.53816821791665 L 399.23143234848976,193.5404494068815 L 398.9482139647007,194.52424457289712 L 398.621988683939,195.48923709609048 L 398.2529243528843,196.43511035658852 L 397.8411811888218,197.36154391982095 L 397.3869346678257,198.26822498061196 L 396.89034500718117,199.15483310439126 L 396.35159531235695,200.02105548598306 L 395.77083817124367,200.8665755055143 L 395.1482566893101,201.6910727284147 L 394.4840110838413,202.49423434950845 L 393.77827683091164,203.27573993422524 L 393.03121414780617,204.0352766773893 L 392.24299851059914,204.7725279591276 L 391.4047874510288,205.49428012587563 L 390.54698410630226,206.1695883534147 L 389.66904678940773,206.79553439833657 L 388.7704223692417,207.36919238783852 L 387.85055390000343,207.88763644911782 L 386.90890350937843,208.34794833876626 L 385.9449180662632,208.74720599867837 L 384.9580444395542,209.08248355605141 L 383.9477371275425,209.3508627674772 L 382.9134429991245,209.5494139454557 L 381.8546203672886,209.67522266127602 L 380.7707122862339,209.72535922743813 L 379.6611732542515,209.69690158583657 L 378.5254501402378,209.58693149306313 L 377.36300125718117,209.39252689101235 L 376.37519684433937,209.16581180312173 L 375.413736730814,208.89068439223306 L 374.4797081053257,208.56854465224282 L 373.57419815659523,208.2008040211393 L 372.69828644394875,207.788862492819 L 371.8530639708042,207.3341276905729 L 371.0396102964878,206.83800342299477 L 370.2590164244175,206.30189349867837 L 369.51236191391945,205.72720935561196 L 368.80073395371437,205.11534717299477 L 368.12522354722023,204.4677183888151 L 367.48690643906593,203.78572681166665 L 366.88687363266945,203.0707762501432 L 366.3262123167515,202.32427051283852 L 365.8060020506382,201.54762103774087 L 365.3273300230503,200.74222400404946 L 364.8912834227085,199.9094908497526 L 364.49894562363625,199.050825383444 L 364.15139999985695,198.16763141371743 L 363.8497375547886,197.26131656386391 L 363.59503784775734,196.33328082777993 L 363.3883880674839,195.38493564345376 L 363.230875402689,194.41768100478188 L 363.123583227396,193.43292453505532 L 363.06759491562843,192.43207004286782 L 363.0640014708042,191.4165251515104 L 363.1127761900425,190.31568744399087 L 363.20889511704445,189.23784473158852 L 363.35219421982765,188.18325259902016 L 363.54251328110695,187.1521666310026 L 363.7796882688999,186.14483859755532 L 364.0635589659214,185.16152789809243 L 364.393961340189,184.20248248793618 L 364.7707351744175,183.2679655811979 L 365.1937202513218,182.35822894789712 L 365.6627487242222,181.47352435805337 L 366.1776641905308,180.61411311842934 L 366.73830261826515,179.78024699904458 L 367.34450379014015,178.9721777699186 L 367.99610367417336,178.1901667378141 L 368.69293823838234,177.434463765402 L 369.43484726548195,176.7053263447477 L 370.221670538187,176.00300815321938 L 371.0532478392124,175.32776668288247 L 371.92941132187843,174.6798537037565 L 372.8500007688999,174.05952670790688 L 372.85000021958353,174.0595260975553 Z" fill="none" stroke="red" stroke-width="3" /></g></svg>