<?xml version="1.0" encoding="utf-8" ?>
<svg baseProfile="tiny" height="600" shape-rendering="crispEdges" version="1.2" viewBox="-278.7664227932692 -53.613639216945586 800.0000000000001 273.07327147588336" width="800" xmlns="http://www.w3.org/2000/svg" xmlns:ev="http://www.w3.org/2001/xml-events" xmlns:xlink="http://www.w3.org/1999/xlink"><defs /><g><path d="M 484.7464185208083,136.53663573794168 L 484.73947577178484,137.5763619952659 L 484.71867804229265,138.6130059771995 L 484.684101626277,139.64649138979715 L 484.6358533352614,140.6767495685081 L 484.5740094631911,141.70369658999246 L 484.49863104522234,142.7272637896995 L 484.4098096340895,143.74737487368387 L 484.307636782527,144.76395354800027 L 484.19218878448015,145.7769235187034 L 484.0635419338942,146.78621612124246 L 483.9217725247145,147.79174743227762 L 483.76697210967546,148.79344115786355 L 483.5992322415114,149.79123626284402 L 483.4186139553786,150.78504119448465 L 483.22519354522234,151.77478728823465 L 483.0190778225661,152.7603982501487 L 482.80034308135515,153.74180541567605 L 482.5690503567458,154.71892486147684 L 482.32529120147234,155.69168792300027 L 482.0691571682692,156.66001067690652 L 481.8007245510817,157.6238244586448 L 481.5200543850661,158.5830529742698 L 481.22726874053484,159.5376199298362 L 480.92241339385515,160.48745666079324 L 480.6055798977614,161.43247161440652 L 480.27685980498796,162.37261138491434 L 479.93632940948015,163.3077844195823 L 479.5840650051833,164.23791442446512 L 479.22014288604265,165.16294036440652 L 478.8446698635817,166.08277831606668 L 478.45769171416765,166.99735198550027 L 478.0593152493239,167.906585078762 L 477.6496167629958,168.81040893130105 L 477.2286725491286,169.70873961977762 L 476.79655890166765,170.6015084796409 L 476.35336737334734,171.4886392169456 L 475.899189516902,172.37005553774637 L 475.43408636748796,173.24568114809793 L 474.9581494778395,174.11543975405496 L 474.471455141902,174.97926269106668 L 473.9740796536208,175.83707366518777 L 473.4661298245192,176.6887887530784 L 472.9476514309645,177.53433929018777 L 472.4187665432692,178.3736489825706 L 471.8795056790114,179.20664153628152 L 471.33000616729265,180.03324065737527 L 470.7702985256911,180.85337768130105 L 470.2005048245192,181.66696868471902 L 469.6206860989333,182.4739450030784 L 469.0309186428786,183.27422271303934 L 468.4312940090895,184.0677407794456 L 467.8218884915114,184.85440764956277 L 467.2027936428786,185.63416228823465 L 466.5740857571364,186.4069284015159 L 465.93584112823015,187.17261443667215 L 465.28813605010515,187.93115935854715 L 464.63107733428484,188.6824868731956 L 463.9647107571364,189.42652068667215 L 463.2891431301833,190.16318450503152 L 462.6044507473708,190.8924020343284 L 461.9107099026442,191.61411223940652 L 461.20801214873796,192.32820830874246 L 460.4964185208083,193.03464446596902 L 459.8147778958083,193.69620452456277 L 459.1253247708083,194.35076079897684 L 458.4281201809645,194.9982369952659 L 457.72324042022234,195.63860259585184 L 457.01074652373796,196.2717507892112 L 456.2907147854567,196.8976510577659 L 455.5632214993239,197.5162271075706 L 454.8283124417067,198.12741790346902 L 454.0860791653395,198.73116241030496 L 453.3365674465895,199.3273843341331 L 452.5798688381911,199.91602263979715 L 451.8160596340895,200.4970162921409 L 451.04517035186296,201.07031951479715 L 450.26730780303484,201.63584075503152 L 449.48251776397234,202.19353423647684 L 448.6908765286208,202.74332366518777 L 447.89246039092546,203.28516326479715 L 447.08733038604265,203.8189614825706 L 446.27556280791765,204.34468780092996 L 445.45720343291765,204.8622506671409 L 444.6323590725661,205.3716043048362 L 443.8010602444411,205.8726724200706 L 442.9634137600661,206.36539397768777 L 442.1194653958083,206.84970794253152 L 441.2692761868239,207.3255532794456 L 440.41293768584734,207.7928689532737 L 439.55051092803484,208.2515786700706 L 438.68205694854265,208.70163665346902 L 437.8076520413161,209.14295135073465 L 436.9273572415114,209.57549224428934 L 436.0412488430739,209.9991677813987 L 435.1494031399489,210.4139321856956 L 434.2518659085036,210.81970916323465 L 433.3487439602614,211.21643767885965 L 432.44006781280046,211.60405669741434 L 431.52592901885515,211.98252044253152 L 430.60637335479265,212.35172210268777 L 429.6815076321364,212.71164641909402 L 428.7513623684645,213.06218658022684 L 427.81604437530046,213.4033120685081 L 426.87558417022234,213.73494658999246 L 425.9300733059645,214.05701385073465 L 424.9795728176833,214.36948333315652 L 424.0241589993239,214.67224822573465 L 423.0639081448317,214.9652780108909 L 422.0988660305739,215.24849639467996 L 421.1291089504958,215.52182708315652 L 420.15471319854265,215.7852242999534 L 419.17575506865984,216.03862700991434 L 418.1922803372145,216.2819741778831 L 417.2043805569411,216.51517425112527 L 416.2121167629958,216.7381814532737 L 415.21554999053484,216.95093474917215 L 414.21477179229265,217.15337310366434 L 413.20981268584734,217.34542022280496 L 412.20077948272234,217.52703033022684 L 411.1877332180739,217.6981118731956 L 410.1707196682692,217.8586343341331 L 409.14983038604265,218.00850616030496 L 408.12512640655046,218.14766631655496 L 407.09668402373796,218.2760690265159 L 406.06455664336687,218.39365325503152 L 405.02883581817156,218.50032744936746 L 403.9895673245192,218.59604583315652 L 402.9468350857497,218.68074737124246 L 401.90070776641375,218.75435576967996 L 400.85124640166765,218.81680999331277 L 399.7985272854567,218.8680642657737 L 398.7426190823317,218.9080270343284 L 397.6835828274489,218.93665252260965 L 396.6214948147536,218.9538796954612 L 395.55642370879656,218.95963225893777 L 394.4786801785231,218.95374236635965 L 393.4039960354567,218.93611846499246 L 392.3324399441481,218.9068063312034 L 391.26408819854265,218.86588225893777 L 390.1990170925856,218.8134225421409 L 389.13728003203875,218.74948821596902 L 388.0789685696364,218.6741403155784 L 387.02414374053484,218.58745513491434 L 385.97287420928484,218.48947845034402 L 384.9252362698317,218.38028655581277 L 383.8813062161208,218.2599557452659 L 382.8411450833083,218.12854705385965 L 381.8048291653395,217.98612151675027 L 380.77243475615984,217.83274016909402 L 379.74402289092546,217.66846404604715 L 378.7196698635817,217.49338470034402 L 377.6994519680739,217.30754790835184 L 376.6834378689528,217.1110299640159 L 375.6716886013747,216.90389190249246 L 374.6642957180739,216.68619475893777 L 373.6613126248122,216.45801482729715 L 372.66281561553484,216.21941314272684 L 371.6688809841872,215.9704507403831 L 370.67957739532,215.7112039142112 L 369.69497351348406,215.4417184405784 L 368.7151456326247,215.16208587221902 L 367.74016241729265,214.87236724428934 L 366.7701001614333,214.57260833315652 L 365.8050199002028,214.2628854327659 L 364.84499792754656,213.94327483706277 L 363.89011053740984,213.6138375812034 L 362.94042639434343,213.27463470034402 L 362.01423315703875,212.93259368471902 L 361.0931745022536,212.58127532534402 L 360.1773267239333,212.2207711749534 L 359.2667584866286,211.85112700991434 L 358.36152319610125,211.4724038653831 L 357.46169714629656,211.08467803530496 L 356.5673490017653,210.6880105548362 L 355.67853979766375,210.28244720034402 L 354.7953458279372,209.86807952456277 L 353.91782049834734,209.4449380450706 L 353.04604773223406,209.01309905581277 L 352.1800885647536,208.5726235919456 L 351.3200116604567,208.12357268862527 L 350.4658780544997,207.6660073810081 L 349.6177640408278,207.20000396303934 L 348.77573065459734,206.7256082110862 L 347.93984656035906,206.24288116030496 L 347.11018042266375,205.7518991046409 L 346.28679327666765,205.25272307925027 L 345.4697690457106,204.74539886050027 L 344.65916113555437,204.2300027423362 L 343.8550382107497,203.70659575991434 L 343.05746893584734,203.1752389483909 L 342.2665257900954,202.63599334292215 L 341.4822698086501,202.08891997866434 L 340.70477347075945,201.53409514956277 L 339.934101626277,200.9715493731956 L 339.1703229397536,200.40137420229715 L 338.41350226104265,199.8236306720237 L 337.663708254695,199.23836455874246 L 336.9210095852614,198.6456521563987 L 336.1854711025954,198.04553924135965 L 335.457165285945,197.4381021075706 L 334.7361531704665,196.82340179018777 L 334.0225072354079,196.20149932436746 L 333.31629233062273,195.57247100405496 L 332.6175771206618,194.9363473468284 L 331.92643027007585,194.29321990542215 L 331.24291662871843,193.64311919741434 L 330.56710104644304,192.9861520343284 L 329.899059817195,192.3223336749534 L 329.23885397613054,191.65177093081277 L 328.5865483731032,190.97449431948465 L 327.9422193020583,190.29056487612527 L 327.305927798152,189.60007415346902 L 326.67773871123796,188.90305266909402 L 326.0577283352614,188.19959197573465 L 325.4459577053786,187.48972259096902 L 324.8424954861403,186.77353606753152 L 324.24741034209734,186.05107818178934 L 323.6607671231032,185.3224099688987 L 323.08263830840593,184.58760772280496 L 322.5130849331618,183.84671721987527 L 321.9521794766188,183.09981475405496 L 321.39998678863054,182.3469461017112 L 320.85657553374773,181.58819518618387 L 320.32201437652117,180.82360778384012 L 319.7963643521071,180.05325255923074 L 319.27970175445085,179.277190547512 L 318.77208761870867,178.49548278384012 L 318.2735944241286,177.70819030337137 L 317.78428320586687,176.91538177065652 L 317.3042302578688,176.11711822085184 L 316.83349280059343,175.31345305971902 L 316.372147127986,174.5044625812034 L 315.9202542752028,173.69019256167215 L 315.47788672149187,172.8707192950706 L 315.0451093167067,172.04610381655496 L 314.62198691070085,171.216399531887 L 314.20859198272234,170.38167510561746 L 313.8049893826247,169.54199157290262 L 313.41124777495867,168.69741759829324 L 313.0274358242751,167.84800658755105 L 312.6536183804274,166.9938195758323 L 312.2898602932692,166.13492522768777 L 311.9362340420485,165.2713845782737 L 311.5928082913161,164.40325866274637 L 311.2596440762282,163.530608516262 L 310.9368138760329,162.65350280337137 L 310.62438254058367,161.7719949298362 L 310.3224187344313,160.8861535602073 L 310.030989214778,159.99603210024637 L 309.7501645535231,159.1017068438987 L 309.48000769317156,158.20323119692605 L 309.22058920562273,157.30067382387918 L 308.97197394073015,156.3940881305198 L 308.73423247039324,155.4835427813987 L 308.5074296444655,154.56909118227762 L 308.29163412749773,153.65080962710184 L 308.08691267669207,152.7287515216331 L 307.8933339565993,151.80297790102762 L 307.7109628170729,150.87356505923074 L 307.5398698300124,149.94055114321512 L 307.3801217526198,149.0040200763206 L 307.23178534209734,148.06402526430887 L 307.0949292629958,147.1206277423362 L 306.9696183651686,146.17388854555887 L 306.8559213131667,145.22388396792215 L 306.7539067715407,144.2706521563987 L 306.66364149749285,143.3142770343284 L 306.58519224822527,142.35481200747293 L 306.51862768828875,141.39231811098855 L 306.4640126675368,140.42686400942605 L 306.4214177578688,139.45850310854715 L 306.390909716487,138.48730407290262 L 306.37255530059343,137.5133279376487 L 306.36642317473894,136.53663573794168 L 306.37309698760515,135.51785979800027 L 306.39306502044207,134.50202880434793 L 306.426252886653,133.48923430971902 L 306.47258429229265,132.47952971987527 L 306.53198103606707,131.47299895815652 L 306.60436682403093,130.46971068911355 L 306.68966536223894,129.46972594790262 L 306.7878003567458,128.47312865786355 L 306.8986955136061,127.47997985415262 L 307.02227263152605,126.49035583071512 L 307.15845732390886,125.5043176227073 L 307.3071713894606,124.52194915346902 L 307.468338534236,123.54331908755105 L 307.64188437163835,122.56849608950418 L 307.8277287930251,121.59754119448465 L 308.0257974117995,120.6305383258323 L 308.23601202666765,119.66755614809793 L 308.4582982510329,118.70865569643777 L 308.6925797909499,117.75392089419168 L 308.93877653777605,116.8034127765159 L 309.19681601226335,115.85720763735574 L 309.4666181057692,114.91537795595926 L 309.74810843169695,113.9779847674827 L 310.04121069610125,113.04510818056863 L 310.34584669768816,112.11681685976785 L 310.6619401425124,111.19317946963113 L 310.9894147366286,110.27426848940652 L 311.3281941860915,109.3601525836448 L 311.67820410430437,108.45090423159402 L 312.0393643826247,107.54659591250223 L 312.41160254180437,106.6472962909202 L 312.7948346585036,105.75307403139871 L 313.18899206817156,104.86400542788309 L 313.5939946621657,103.98015533022684 L 314.00976233184343,103.10160003237527 L 314.436226412654,102.22840438418191 L 314.87330679595476,101.36064467959207 L 315.3209233731032,100.49838958315652 L 315.77900366485125,99.64170775942605 L 316.2474713772536,98.79067168764871 L 316.72624640166765,97.94535384707254 L 317.2152524441481,97.10582290224832 L 317.7144208401442,96.2721513324241 L 318.2236638516188,95.44440780215066 L 318.74291281402117,94.62266479067605 L 319.27208761870867,93.80699096255105 L 319.811111971736,92.99745879702371 L 320.3599095791579,92.19414077334207 L 320.918404147029,91.39710174135965 L 321.486519381404,90.60641799502176 L 322.0641789883376,89.82215819887918 L 322.65130667388445,89.04439483217996 L 323.247822329402,88.27320037417215 L 323.85365347564226,87.50863586001199 L 324.46872381865984,86.75078521303934 L 325.0929532498122,85.99970946841043 L 325.726265475154,85.25548301272195 L 326.3685880154372,84.51817641787332 L 327.0198407620192,83.78786025576395 L 327.67994742095476,83.06460700564188 L 328.3488355129958,82.34848533205789 L 329.0264211148024,81.6395658069114 L 329.7126355618239,80.93792090945047 L 330.4073949307204,80.24361930422586 L 331.1106267422438,79.55673347048563 L 331.8222547024489,78.87733398012918 L 332.54219870269304,78.20549140505594 L 333.27039007842546,77.54127631716531 L 334.00674109160906,76.88475928835672 L 334.7511868923903,76.23601089052957 L 335.5036397427321,75.59510360293191 L 336.26403097808367,74.96210609011453 L 337.0322804898024,74.33709083132547 L 337.8083157986403,73.72012649111551 L 338.5920529812575,73.1112855487327 L 339.3834233731032,72.51063857607645 L 340.15367178618914,71.93933997683328 L 340.9308743923903,71.37578712038797 L 341.71496252715593,70.82004294924539 L 342.50586371123796,70.27217040591043 L 343.30351690948015,69.73223243288797 L 344.1078458279372,69.20029388003152 L 344.9187818020583,68.6764186435203 L 345.7362637966872,68.16066871218484 L 346.5602155178786,67.65310893587869 L 347.3905683010817,67.1538013034324 L 348.2272611111403,66.66281066469949 L 349.0702252835036,66.18019900851053 L 349.9193768948317,65.70603118471902 L 350.7746701687575,65.24037013582986 L 351.63601355254656,64.78327975802225 L 352.5033612698317,64.33482299380105 L 353.3766217678786,63.89506278567117 L 354.25574164092546,63.46406398348611 L 355.14065222442156,63.04188952975076 L 356.03127722442156,62.62860236697 L 356.9275479763747,62.22426639132303 L 357.8294034451247,61.82894454531473 L 358.7367749661208,61.442701201961455 L 359.64958624541765,61.065599303768096 L 360.5677686184645,60.69770227007669 L 361.49126105010515,60.339073997066436 L 362.41999487578875,59.98977742724222 L 363.35389380157,59.64987645678323 L 364.2928891628981,59.319434028194365 L 365.23691992461687,58.998514037654815 L 366.18591742217546,58.68718038134378 L 367.1398053616286,58.385495524928984 L 368.09852270782,58.09352336458963 L 369.0620007961989,57.81132779650491 L 370.03016333282,57.538972001598296 L 371.0029416531325,57.27651916079324 L 371.98027472198015,57.02403317026895 L 372.9620938748122,56.78157721094888 L 373.9483228176833,56.54921494059366 L 374.9389005154372,56.32700954012674 L 375.9337583035231,56.115024905727324 L 376.9328198879958,55.91332421831888 L 377.9360242336989,55.72197113566202 L 378.9433026760817,55.541028838680205 L 379.9545789211989,55.37056110434335 L 380.9697919338942,55.21063123278421 L 381.98886542022234,55.06130276255411 L 383.01174597442156,54.922639232204375 L 384.0383420437575,54.794703941867766 L 385.06860785186296,54.6775605493049 L 386.1024594753981,54.57127235464853 L 387.1398358792067,54.47590289644998 L 388.18066839873796,54.39151571326059 L 389.22488074004656,54.31817422442239 L 390.27241186797625,54.255941849277434 L 391.32319311797625,54.20488218598169 L 392.3771558254958,54.16505859427255 L 393.4342236965895,54.136534612701354 L 394.49433569610125,54.11937366061014 L 395.55742315948015,54.113639216945586 L 396.6211591213942,54.119380634353575 L 397.68191199004656,54.13656250767511 L 398.73962073028093,54.16512123875421 L 399.79421667754656,54.20499340824884 L 400.84563116729265,54.256115358398375 L 401.8937879055739,54.31842361025613 L 402.93862585723406,54.39185456566614 L 403.98007635772234,54.4763447456817 L 405.01806311309343,54.571830492542205 L 406.0525250881911,54.67824838690561 L 407.0833936184645,54.795534830615935 L 408.11060003936296,54.923626285121856 L 409.134052798152,55.06245921187204 L 410.1537213772536,55.211970072315154 L 411.1695142239333,55.37209520869058 L 412.18137030303484,55.54277120165628 L 413.18921332061296,55.72393451266092 L 414.1929822415114,55.91552148394388 L 415.19260077178484,56.117468934581694 L 416.188007876277,56.32971272997659 L 417.1791425198317,56.55218968920511 L 418.1659131497145,56.78483615450662 L 419.1482587307692,57.02758870653909 L 420.1261182278395,57.2803836875419 L 421.09941534698015,57.543157678173 L 422.0681043118239,57.81584725909036 L 423.03207831084734,58.09838805727762 L 423.9912915676833,58.390717845485625 L 424.9456677883864,58.69277177386087 L 425.89514593780046,59.004487376735625 L 426.8396649807692,59.325800281093535 L 427.7791333645583,59.65664754442972 L 428.7134900540114,59.99696527056497 L 429.64267401397234,60.346690040157256 L 430.5666089504958,60.70575795702737 L 431.48523382842546,61.07410607867044 L 432.3984723538161,61.451670508907256 L 433.30624823272234,61.83838782839578 L 434.208515688777,62.23419509463113 L 435.10519842803484,62.63902698092264 L 435.99622015655046,63.05282149843973 L 436.8815045803786,63.4755147510032 L 437.761005923152,63.90704284243387 L 438.6346326321364,64.34734283022684 L 439.5023389309645,64.79635081820291 L 440.364033266902,65.2540038638572 L 441.21965460479265,65.72023711733621 L 442.06914190948015,66.19498763613504 L 442.9124188870192,66.67819247774881 L 443.7494245022536,67.16978774599832 L 444.58008246123796,67.66970859103006 L 445.404316470027,68.17789397768777 L 446.2220807522536,68.69427810244363 L 447.0332837551833,69.21879897646707 L 447.83786444365984,69.75139174990457 L 448.635761782527,70.29199538759988 L 449.4268994778395,70.84054313235086 L 450.2112164944411,71.39697204165262 L 450.9886365383864,71.9612210803489 L 451.75908331573015,72.53322349123758 L 452.52251105010515,73.11291823916238 L 453.278828188777,73.70023856692117 L 454.0279736965895,74.29512534670633 L 454.76987127959734,74.8975118213157 L 455.5044751614333,75.50733695559305 L 456.231709048152,76.12453399233621 L 456.9514813870192,76.74904189638895 L 457.66374640166765,77.38079581789773 L 458.368427798152,78.0197328143577 L 459.065449282527,78.66578994326395 L 459.75476507842546,79.31890235476297 L 460.43628363311296,79.97900710634988 L 461.1099439114333,80.64603934817117 L 461.77568487823015,81.31993804507059 L 462.4334302395583,82.00063834719461 L 463.1232037991286,82.73102698855203 L 463.80380682647234,83.4689401202659 L 464.47514776885515,84.21430335573953 L 465.1371503323317,84.96704040102762 L 465.7897077053786,85.72707305483621 L 466.4327588528395,86.49432693056863 L 467.06621222198015,87.26872573427957 L 467.68999151885515,88.05019317202371 L 468.30400519073015,88.83865294985574 L 468.9081922024489,89.63402877383035 L 469.50244574248796,90.43624435000223 L 470.086689516902,91.24522338442605 L 470.6608472317458,92.06088958315652 L 471.22482733428484,92.88317046694559 L 471.77856878936296,93.7119821124534 L 472.3219647854567,94.54725585512918 L 472.8549390286208,95.38891158633035 L 473.37741522490984,96.23687682680887 L 473.8893018215895,97.09106765322488 L 474.3905377835036,97.95141540102762 L 474.8810162991286,98.81784377627176 L 475.3606610745192,99.69027267031473 L 475.82939581573015,100.56862578921121 L 476.287128970027,101.45283065371316 L 476.7337995022536,102.34281096987527 L 477.1693006008864,103.23848662905496 L 477.59355597198015,104.13978133730691 L 478.0064893215895,105.04662261538309 L 478.40800909698015,105.95893416933816 L 478.7980542629958,106.87663970522684 L 479.1765027493239,107.79965911440652 L 479.5433240383864,108.72791991762918 L 479.8983808010817,109.66134582094949 L 480.2416425198317,110.59986053042215 L 480.5729871243239,111.54338393740457 L 480.892353579402,112.49184737734598 L 481.1996503323317,113.44516692690652 L 481.49480108916765,114.40327392153543 L 481.77771429717546,115.36608443789285 L 482.04831366240984,116.33352981142801 L 482.30652289092546,117.30552611880105 L 482.5522351711989,118.28200469546121 L 482.78540472686296,119.2628854327659 L 483.0059247463942,120.2480920367698 L 483.21371893584734,121.23754821352762 L 483.408711001277,122.23117766909402 L 483.59079413115984,123.22890410952371 L 483.7599225491286,124.2306588702659 L 483.91598944365984,125.23635039858621 L 484.0589032620192,126.2459176593284 L 484.1886182278395,127.25927672915262 L 484.3050122708083,128.27635131411355 L 484.4080243557692,129.29707274966043 L 484.497578188777,130.32134948305887 L 484.57358221709734,131.34912047915262 L 484.6359448879958,132.38030181460184 L 484.684589907527,133.41482482485574 L 484.7194409817458,134.4526055865745 L 484.74040655791765,135.49356780581277 L 484.7474256008864,136.5376428180198 L 484.7464227932692,136.5366392169456 Z" fill="none" stroke="blue" stroke-width="3" /><path d="M 520.2414288967848,100.20764098696512 L 520.111347720027,99.86294494204324 L 519.9665265530348,99.52448974184793 L 519.8070416897535,99.19226775698465 L 519.6329846829176,98.86626372866434 L 519.4444318264723,98.54647765688699 L 519.241489931941,98.23289809756082 L 519.0242352932692,97.92551742129129 L 518.792744204402,97.62432799868387 L 518.5471082180738,97.32932220034402 L 518.2874188870192,97.04049239687723 L 518.0137677639723,96.75783095888895 L 517.7262311428785,96.48133025698465 L 517.4249005764723,96.2109826617698 L 517.1098676174879,95.94678054384988 L 516.7812085598707,95.68871627383035 L 516.4390149563551,95.43677840761941 L 516.0833783596754,95.19096694521707 L 515.714375063777,94.95126281313699 L 515.3320966213942,94.71766982607645 L 514.9366345852613,94.49017272524637 L 514.5280805081129,94.26876769594949 L 514.1064954251051,94.05344329409402 L 513.6719861477613,93.8441957049827 L 513.224644228816,93.64101348452371 L 512.7645459622145,93.4438928180198 L 512.291782900691,93.25282226137918 L 511.8064313381911,93.06779799990457 L 511.3085828274489,92.88880477480691 L 510.79834417998796,92.71584640078348 L 510.27576117217546,92.54890380434793 L 509.74097113311296,92.38797317080301 L 509.19401983916765,92.23305068545145 L 508.6349988430739,92.08412490420145 L 508.06401495635515,91.94118819765848 L 507.4811444729567,91.80423293642801 L 506.8864636868239,91.67325149111551 L 506.28007940948015,91.54823623232645 L 505.6620679348708,91.42917953066629 L 505.03252081573015,91.31607375674051 L 504.3915143460036,91.2089074664573 L 503.7391248196364,91.10768065981668 L 503.0754743069411,91.01237807802957 L 502.4006238430739,90.92299590639871 L 501.7146802395583,90.83952651552957 L 501.01770453155046,90.76195846133035 L 500.30978827178484,90.69029174380105 L 499.59103827178484,90.62450728945535 L 498.8615155667067,90.56460509829324 L 498.1213269680739,90.5105775409202 L 497.3705487698317,90.46241317324441 L 496.6092725247145,90.42010818056863 L 495.8375897854567,90.38365111880105 L 495.0555768460036,90.35303435854715 L 494.26331000030046,90.32825408510965 L 493.46091131865984,90.30929885439676 L 492.6484265774489,90.29616485171121 L 491.82597784698015,90.28883681826395 L 490.99362616240984,90.28731475405496 L 490.15146307647234,90.2915834002952 L 489.2995954006911,90.30164275698465 L 488.43808417022234,90.31748138003152 L 487.5670361965895,90.33909164004129 L 486.6865125149489,90.36646590761941 L 485.79663519561296,90.39959655337137 L 484.89746527373796,90.43847594790262 L 483.9890943020583,90.48309646181863 L 483.0715985745192,90.53344665102762 L 482.1450849026442,90.5895227008323 L 481.20964483916765,90.65132079653543 L 480.2653394192458,90.71882186465066 L 479.31226019561296,90.79202971987527 L 478.35051397979265,90.8709291034202 L 477.38017706573015,90.9555123858909 L 476.4013257473708,91.04577956728738 L 475.4140515774489,91.14171157412332 L 474.41846136748796,91.24331222109598 L 473.4146161526442,91.35056243471902 L 472.402607485652,91.46346602968973 L 471.3825269192458,91.58200393252176 L 470.35446600615984,91.70617614321512 L 469.3185010403395,91.83597121767801 L 468.2747235745192,91.9713815265159 L 467.2232251614333,92.11240325503152 L 466.164082095027,92.25902495913309 L 465.0974011868239,92.41123519472879 L 464.0232282131911,92.56903396181863 L 462.94170050323015,92.73240981631082 L 461.8528638333083,92.90135894350809 L 460.75684027373796,93.07586608462137 L 459.6536756008864,93.2559274249534 L 458.5434918850661,93.44153533510965 L 457.42636542022234,93.63267837099832 L 456.30237250030046,93.82935653261941 L 455.17160467803484,94.03155456118387 L 454.0341687649489,94.23927245669168 L 452.89011053740984,94.45249496035379 L 451.73955206573015,94.67121444277566 L 450.58256964385515,94.89542708926004 L 449.4192548245192,95.12512527041238 L 448.24968390166765,95.36030135683816 L 447.0739331692458,95.60094390444559 L 445.8921246975661,95.84704528384012 L 444.70431952178484,96.09860168032449 L 443.51059393584734,96.35560164980691 L 442.3110700100661,96.61804137759012 L 441.1057935208083,96.8859094195823 L 439.8948865383864,97.15919814638895 L 438.6784253567458,97.43790374331277 L 437.4564862698317,97.72201095156473 L 436.2291608303786,98.0115197711448 L 434.9965253323317,98.30641875796121 L 433.7587018460036,98.60670409731668 L 432.5157361477614,98.91236053042215 L 431.2677350491286,99.22338424258035 L 430.0147901028395,99.53977141909402 L 428.7569776028395,99.8615068011741 L 427.49438910186296,100.18858657412332 L 426.22710089385515,100.52100310854715 L 424.95520453155046,100.85874877505105 L 423.67880682647234,101.20181594424051 L 422.397968813777,101.55019317202371 L 421.1127820461989,101.9038766437034 L 419.82333807647234,102.26285872988504 L 418.5297284573317,102.6271318011741 L 417.23202948272234,102.99668441347879 L 415.9303327053786,103.37150893740457 L 414.62472967803484,103.75160537295145 L 413.31531195342546,104.13695464663309 L 412.0021405667067,104.52756057314676 L 410.685322329402,104.92340407900613 L 409.3649335354567,105.32448516421121 L 408.0410809963942,105.7307923846702 L 406.7138257473708,106.14232192568582 L 405.3832669705153,106.55906234316629 L 404.0494962185622,106.98100600771707 L 402.7125897854567,107.40814528994363 L 401.3726392239333,107.84047637514871 L 400.02973608672625,108.27798400454324 L 398.68395666778093,108.72066817812723 L 397.33540014922625,109.16851745180887 L 395.9841428250075,109.62152038149637 L 394.6302686184645,110.07967696718973 L 393.27387671172625,110.54297576479715 L 391.9150510281325,111.01140533022684 L 390.5538678616286,111.48496184878152 L 389.19042639434343,111.96363769106668 L 387.8283582180739,112.44617019228738 L 386.47126440703875,112.93126998476785 L 385.1192212551833,113.41888747744363 L 383.7722974270583,113.90897307925027 L 382.4305615872145,114.40148101382059 L 381.09409002959734,114.89636169009012 L 379.7629514187575,115.39356551699441 L 378.4372220486403,115.89304671816629 L 377.1169782131911,116.39475570254129 L 375.8022809475661,116.89864669375223 L 374.49321417510515,117.40466628603738 L 373.18984656035906,117.9127648883323 L 371.89223913848406,118.42290435366434 L 370.6004834622145,118.93502746157449 L 369.3146405667067,119.44909606509012 L 368.03478674590593,119.96504149966043 L 366.76098303496843,120.48284087710184 L 365.4933209866286,121.00242553286355 L 364.23186163604265,121.52375731997293 L 362.97668127715593,122.04678283266824 L 361.7278409451247,122.5714562945823 L 360.4854321926833,123.09773192934793 L 359.24951605498796,123.6255563312034 L 358.0201611965895,124.15488372378152 L 356.7974515408278,124.68566833071512 L 355.58144812285906,125.21785674624246 L 354.3722272366286,125.75140319399637 L 353.1698651760817,126.28626189760965 L 351.9744306057692,126.82237945132059 L 350.7859998196364,127.35971007876199 L 349.60464148223406,127.89820800356668 L 348.43042425811296,128.43781981997293 L 347.26343207061296,128.97849975161355 L 346.1037259548903,129.52020202212137 L 344.9513822048903,130.06287322573465 L 343.80646948516375,130.6064675860862 L 342.66907171905046,131.15093169741434 L 341.5392499417067,131.69622741274637 L 340.4170842617751,132.2423013263206 L 339.30263952910906,132.78910003237527 L 338.19599585235125,133.33658538393777 L 337.09721808135515,133.88470397524637 L 336.0063825100661,134.43340240053934 L 334.9235616177321,134.98264251284402 L 333.8488316982985,135.53236327700418 L 332.78225378692156,136.08252654604715 L 331.7239118069411,136.63308654360574 L 330.6738744229079,137.1839822345237 L 329.63221029937273,137.7351754718284 L 328.59899573028093,138.28662047915262 L 327.57430319488054,138.83825622134012 L 326.5582051724196,139.39004455141824 L 325.5507703274489,139.94193206362527 L 324.55207495391375,140.49387298159402 L 323.5621915310622,141.04581389956277 L 322.581188723445,141.59771667055887 L 321.6091428250075,142.1495278888206 L 320.64612631499773,142.7011941485862 L 319.6922078579665,143.2526773028831 L 318.74746374785906,143.8039239459495 L 317.81196264922625,144.3548806720237 L 316.88578085601335,144.90550170473855 L 315.96898703277117,145.45574889712137 L 315.061657473445,146.00555358462137 L 314.1638608425856,146.55489287905496 L 313.2756696194411,147.10369811587137 L 312.3971600979567,147.6519235187034 L 311.5284009426833,148.1995309405784 L 310.6694684475661,148.74646697573465 L 309.82043127715593,149.29267821841043 L 308.9813638180495,149.8381265216331 L 308.15233664214617,150.38275085024637 L 307.333422228694,150.92651305727762 L 306.5246949642897,151.46935973696512 L 305.7262273281813,152.01124511294168 L 304.93808989226824,152.55212340884012 L 304.1603551357985,153.0919412188987 L 303.3930974453688,153.63065276675027 L 302.6363873928786,154.1682046466331 L 301.89029745757585,154.7045587115745 L 301.15490011870867,155.23965392641824 L 300.4302678555251,155.77345214419168 L 299.71647505462175,156.3058999591331 L 299.0135903805495,156.83695159487527 L 298.32168821990496,157.36656127505105 L 297.64084295928484,157.89466796450418 L 296.9711232632399,158.42124114565652 L 296.31260351836687,158.94621978335184 L 295.66535620391375,159.46956573061746 L 295.0294537991286,159.99121795229715 L 294.4049668759108,160.5111306720237 L 293.7919698208571,161.0292657428245 L 293.1905341595412,161.54556975893777 L 292.6007333248854,162.05998931460184 L 292.02263884246355,162.57248626284402 L 291.4563222378493,163.0829995685081 L 290.90185789763933,163.59149108462137 L 290.3593163937331,164.09790740542215 L 289.8287711590529,164.60220275454324 L 289.31029467284685,165.10432372622293 L 288.80395846068865,165.60422454409402 L 288.30983500182634,166.10186706118387 L 287.8279977291823,166.5971902423362 L 287.35851912200457,167.09014831118387 L 286.90146975219255,167.58068786196512 L 286.4569235295058,168.06877837710184 L 286.0249529331923,168.55435119204324 L 285.6056290119887,169.03736815981668 L 285.19902567565447,169.51778350405496 L 284.80521444976335,169.99554381899637 L 284.4242678135634,170.4706033282737 L 284.0562587231398,170.94290862612527 L 283.70125870406633,171.41241393618387 L 283.3593411892653,171.8790734820823 L 283.0305772274733,172.3428414874534 L 282.7150404900313,172.80366454653543 L 282.41280274093157,173.26148925356668 L 282.1239362210036,173.7162774615745 L 281.84851388633257,174.16797576479715 L 281.5866077393294,174.61653838686746 L 281.3382902592421,175.06191955141824 L 281.1036336869002,175.50405822329324 L 280.88271073997026,175.94292388491434 L 280.6755936592818,176.37844787173074 L 280.4823548048735,176.81059966616434 L 280.30306653678423,177.2393258624534 L 280.13780133426195,177.6645730548362 L 279.98663155734545,178.0862954669456 L 279.8496295660735,178.50444732241434 L 279.7268678396941,178.91898284487527 L 279.6184186786414,179.32984099917215 L 279.5243545621634,179.73699126772684 L 279.44474785029894,180.14036498598855 L 279.3796709030867,180.53993163637918 L 279.32919614017015,180.935637813137 L 279.29339598119265,181.32743011050027 L 279.27234278619295,181.71526275210184 L 279.26610894501215,182.09908233217996 L 279.2747668474913,182.47885833315652 L 279.2983889430762,182.85452971987527 L 279.3370475620032,183.22603545717996 L 279.3908151835204,183.59336028628152 L 279.4597640484572,183.95642791323465 L 279.543966755271,184.31519256167215 L 279.64349548518663,184.66960845522684 L 279.75842277705675,185.0196450763206 L 279.8884969204665,185.3643258624534 L 280.0333191603423,185.7027810626487 L 280.1928028315306,186.03501067690652 L 280.36686114966875,186.36101470522684 L 280.55540744960314,186.6808084063987 L 280.7583550661803,186.9943765216331 L 280.9756172150374,187.30176482729715 L 281.2071073502303,187.60295806460184 L 281.4527385681868,187.89795623354715 L 281.7124245613814,188.1867898517112 L 281.98607806861406,188.46944366030496 L 282.2736127823592,188.74594817690652 L 282.57494215667253,189.01628814272684 L 282.8899789303542,189.28049407534402 L 283.21863703429705,189.5385659747581 L 283.5608292073012,189.79050384096902 L 283.916469141841,190.03630767397684 L 284.28547005355364,190.27600799135965 L 284.66774515807634,190.50960479311746 L 285.0632081478835,190.73709807925027 L 285.4717712849379,190.9585183673362 L 285.89334921538835,191.17383513979715 L 286.32785467803484,191.3830789142112 L 286.7752004116774,191.58626494936746 L 287.2353005856276,191.78337798647684 L 287.70806841552263,191.97444854311746 L 288.19341616332537,192.15947661928934 L 288.69125799834734,192.33847747378152 L 289.2015080899001,192.51143584780496 L 289.72407774627214,192.67838225893777 L 290.2588820904494,192.8393014483909 L 290.8058324307204,192.99422393374246 L 291.3648448437453,193.14314971499246 L 291.93582968413835,193.28609405092996 L 292.51870302855974,193.4230416827659 L 293.1133752316237,193.5540231280784 L 293.7197623699904,193.67903838686746 L 294.33777670562273,193.79810271792215 L 294.9673314541579,193.9112008624534 L 295.60833792388445,194.01836333803934 L 296.2607121914626,194.11960540346902 L 296.9243684262038,194.21489654116434 L 297.59921698272234,194.30428252749246 L 298.28517203032976,194.38774810366434 L 298.9821477383376,194.4653237872581 L 299.69005636870867,194.53699431948465 L 300.40881209075457,194.6027749591331 L 301.1383290737868,194.6626657062034 L 301.8785176724196,194.7166970782737 L 302.62929396331316,194.76486907534402 L 303.39057020843035,194.80716643862527 L 304.1622605770827,194.8436196856956 L 304.94427542388445,194.87424407534402 L 305.7365327328444,194.89902434878152 L 306.5389409512282,194.91797576479715 L 307.351416155696,194.93111358217996 L 308.17387251555925,194.93843780092996 L 309.0062203854323,194.9399636798362 L 309.84837584197527,194.9356912188987 L 310.70025114715105,194.92563567690652 L 311.5617566555739,194.90979705385965 L 312.43281225860125,194.88819060854715 L 313.3133244961501,194.86081634096902 L 314.2032132595778,194.82767425112527 L 315.1023869961501,194.7888101153831 L 316.01075796782976,194.74417815737527 L 316.9282460659743,194.69382415346902 L 317.854755923152,194.63774810366434 L 318.7902074307204,194.57596526675027 L 319.73451285064226,194.50846038393777 L 320.6875806301833,194.4352487140159 L 321.64933066070085,194.3563455157737 L 322.6196713894606,194.27176604800027 L 323.59852270782,194.18149505190652 L 324.58578924834734,194.0855630450706 L 325.5813870877028,193.98397002749246 L 326.5852361172438,193.87671599917215 L 327.59724096953875,193.7638162188987 L 328.61731772124773,193.64527068667215 L 329.64538244903093,193.5211099200706 L 330.681343600154,193.3913034015159 L 331.725117251277,193.25589690737527 L 332.77661947906023,193.11487517885965 L 333.8357587307692,192.9682534747581 L 334.90245108306414,192.81604705385965 L 335.9766087979079,192.65824065737527 L 337.0581479519606,192.4948648028831 L 338.14697699248796,192.3259194903831 L 339.2430119961501,192.15141997866434 L 340.34616522490984,191.97135100893777 L 341.45634894073015,191.78574309878152 L 342.57348303496843,191.5945962481956 L 343.6974683254958,191.39792571596902 L 344.8282361477614,191.19571624331277 L 345.96567969024187,190.98801360659402 L 347.1097302883864,190.77478728823465 L 348.2602887600661,190.55606780581277 L 349.4172711819411,190.3318551593284 L 350.58059363067156,190.10214934878152 L 351.7501645535231,189.86698089175027 L 352.92590765655046,189.6263345294456 L 354.1077237576247,189.3802407794456 L 355.29553656280046,189.1286843829612 L 356.4892468899489,188.87168059878152 L 357.6887784451247,188.6092446856956 L 358.89404730498796,188.3413766437034 L 360.10495428740984,188.06807647280496 L 361.321423098445,187.7893746905784 L 362.54336218535906,187.5052712970237 L 363.7706876248122,187.21575103335184 L 365.0033154934645,186.92085967592996 L 366.2411466091872,186.62058196596902 L 367.48411230742937,186.31491790346902 L 368.73210577666765,186.0038980060081 L 369.98505835235125,185.68750701479715 L 371.24287085235125,185.36577544741434 L 372.50546698272234,185.0386880450706 L 373.7727475613356,184.70627532534402 L 375.0446362942458,184.36853728823465 L 376.32104162871843,184.0254586749534 L 377.60187964141375,183.67708526186746 L 378.88706640899187,183.32340179018777 L 380.1765027493239,182.9644235187034 L 381.4701123684645,182.60015044741434 L 382.7678113430739,182.23059783510965 L 384.06950812041765,181.85576568178934 L 385.3751111477614,181.475676875637 L 386.6845365017653,181.0903237872581 L 387.99770788848406,180.69972167544168 L 389.31452612578875,180.30387054018777 L 390.6349072903395,179.90279326967996 L 391.95876745879656,179.4964822345237 L 393.28602270782,179.0849526935081 L 394.61657385528093,178.66821990542215 L 395.9503522366286,178.24626861147684 L 397.2872510403395,177.81912932925027 L 398.62720160186296,177.38680205874246 L 399.9701123684645,176.94929442934793 L 401.3158841580153,176.50660644106668 L 402.6644483059645,176.0587609820823 L 404.0157056301833,175.6057580523948 L 405.3695722073317,175.14759765200418 L 406.72596411407,174.68430266909402 L 408.0847974270583,174.21587310366434 L 409.44597296416765,173.74231658510965 L 410.80942206084734,173.2636407428245 L 412.17148260772234,172.78110442690652 L 413.528584048152,172.2960122638206 L 414.88061957061296,171.8083947711448 L 416.227558657527,171.3183053546409 L 417.5692944973708,170.82580504946512 L 418.90576605498796,170.3309243731956 L 420.2368970364333,169.83371673159402 L 421.56262640655046,169.33424315981668 L 422.8828778713942,168.83253417544168 L 424.1975751370192,168.32864318423074 L 425.50664190948015,167.82263122134012 L 426.8100171536208,167.31452880434793 L 428.1076245754958,166.80439696841043 L 429.39938788115984,166.29227386050027 L 430.68523077666765,165.77821288637918 L 431.96509222686296,165.26226745180887 L 433.23889593780046,164.744475703762 L 434.50656561553484,164.2248986773948 L 435.7680249661208,163.70356689028543 L 437.023212954402,163.18054900698465 L 438.2720532864333,162.6558755450706 L 439.5144696682692,162.1296075396995 L 440.7504010647536,161.60178313784402 L 441.979755923152,161.07246337466043 L 443.2024732083083,160.54168639712137 L 444.418476626277,160.00949798159402 L 445.627705141902,159.47595916323465 L 446.8300672024489,158.9411080890159 L 448.0255017727614,158.40499053530496 L 449.2139478176833,157.8676675372581 L 450.39531378448015,157.32917724184793 L 451.5695386379958,156.7895730548362 L 452.7365308254958,156.24890075259012 L 453.89624457061296,155.70720611147684 L 455.048603579402,155.1645425372581 L 456.1935162991286,154.62094817690652 L 457.3309216946364,154.07649169497293 L 458.46074347198015,153.53120360903543 L 459.5829205960036,152.98513732485574 L 460.69736151397234,152.43833861880105 L 461.8040204495192,151.8908608966331 L 462.90280584990984,151.34274993471902 L 463.9936414211989,150.7940591388206 L 465.07646612823015,150.24482665591043 L 466.15121893584734,149.6951135211448 L 467.217793032527,149.14495025210184 L 468.276142641902,148.5944055133323 L 469.326191470027,148.04350982241434 L 470.3678632229567,147.49232421450418 L 471.4010816067458,146.94089446596902 L 472.42578558623796,146.38925872378152 L 473.4418836086989,145.83747802309793 L 474.4493298977614,145.28559814028543 L 475.4480329006911,144.7336648517112 L 476.43791632354265,144.18172393374246 L 477.4189343899489,143.6298287921409 L 478.3909802883864,143.0780252032737 L 479.35400824248796,142.52636657290262 L 480.3079266995192,141.97489104800027 L 481.2526746243239,141.4236520343284 L 482.1881909817458,140.8727029376487 L 483.11438421905046,140.3220895343284 L 484.03117804229265,139.77184997134012 L 484.9385114163161,139.22204528384012 L 485.8363233059645,138.6727212481956 L 486.7245068997145,138.12391601137918 L 487.60303167998796,137.57569823794168 L 488.4717908352614,137.02809081606668 L 489.3307233303786,136.48116241030496 L 490.1797681301833,135.9349587970237 L 491.01884894073015,135.3895181231956 L 491.84787420928484,134.8448937945823 L 492.66679815948015,134.3011392169456 L 493.4755292385817,133.7582925372581 L 494.2740064114333,133.21641479067605 L 495.06213812530046,132.67554412417215 L 495.8398786038161,132.1357339435081 L 496.60715155303484,131.59702239565652 L 497.36386542022234,131.05947814516824 L 498.10995917022234,130.52313170962137 L 498.8453565090895,129.98803649477762 L 499.56999640166765,129.45423827700418 L 500.28378729522234,128.9217980914573 L 500.9866834133864,128.39074645571512 L 501.6785779446364,127.86114440493387 L 502.35942511260515,127.33303771548074 L 503.02914862334734,126.8064645343284 L 503.68767218291765,126.28149352602762 L 504.3349194973708,125.75815520815652 L 504.97082953155046,125.23650298647684 L 505.59531073272234,124.71658263735574 L 506.2083173245192,124.19844756655496 L 506.8097577542067,123.68215117983621 L 507.3995557278395,123.16773162417215 L 507.9776502102614,122.65523467592996 L 508.543964907527,122.1447213702659 L 509.09843878448015,121.63622985415262 L 509.6409802883864,121.12981353335184 L 510.17151312530046,120.62552581362527 L 510.68999151885515,120.12339721255105 L 511.1963239163161,119.62349639467996 L 511.690449282527,119.12585387759012 L 512.1722913235426,118.63053069643777 L 512.6417584866285,118.13757262759012 L 513.0988049954176,117.64702544741434 L 513.5433545559645,117.15893493227762 L 513.9753308743238,116.67335830263895 L 514.3946423977613,116.19033370547098 L 514.8012433499098,115.7099183612327 L 515.1950574368238,115.23215423159402 L 515.5759931057692,114.75709472231668 L 515.9440045803785,114.28478179507059 L 516.2990003079176,113.81526885561746 L 516.640903994441,113.34860168032449 L 516.9696698635817,112.8848336749534 L 517.285191103816,112.4240068011741 L 517.587421938777,111.96617065005105 L 517.8762860745192,111.51137481264871 L 518.1517072170973,111.05966888003152 L 518.413593813777,110.61109862856668 L 518.6619153469801,110.16571364931863 L 518.8965497463942,109.72356353335184 L 519.117466494441,109.28469405703348 L 519.3245740383863,108.84915481142801 L 519.5178113430738,108.41699157290262 L 519.6970868557692,107.98825774721902 L 519.862339541316,107.56299911074441 L 520.0134931057692,107.14126525454324 L 520.1504865139723,106.7231019549827 L 520.2732434719801,106.30855880312723 L 520.3816724270582,105.89768157534402 L 520.4757276028395,105.4905236773948 L 520.5553174465895,105.08713088564676 L 520.620380923152,104.68755279116434 L 520.6708417385817,104.29183517031473 L 520.7066235989332,103.90002761416238 L 520.7276654690504,103.51217971377176 L 520.7338910549879,103.12833724551004 L 520.7252088040113,102.74854980044168 L 520.7015729397535,102.37286315493387 L 520.6628919094801,102.00133071474832 L 520.6091046780348,101.63399825625223 L 520.5401349514723,101.27091537051004 L 520.4559216946363,100.91212783388895 L 520.3563733547926,100.55768905215066 L 520.2414288967848,100.20764098696512 L 520.2414227932692,100.20763921694558 Z" fill="none" stroke="green" stroke-width="3" /><path d="M 405.57841925323015,160.89063964419168 L 404.18144659698015,161.38087401919168 L 402.78772406280046,161.865081172512 L 401.39738897979265,162.3432534747581 L 400.01060156524187,162.81536803774637 L 398.62749151885515,163.28140960268777 L 397.2482037991286,163.7413552813987 L 395.8728909939528,164.19518981509012 L 394.50169043242937,164.64289794497293 L 393.1347547024489,165.08445678286355 L 391.77222113311296,165.51985106997293 L 390.4142270535231,165.949065547512 L 389.0609326809645,166.37208495669168 L 387.7124677151442,166.7888864093284 L 386.3689847439528,167.19944701723855 L 385.03062109649187,167.6037515216331 L 383.697529360652,168.00179229311746 L 382.36984686553484,168.3935464435081 L 381.0477185696364,168.77899108462137 L 379.7312894314528,169.1581033282737 L 378.42070440948015,169.53088317446512 L 377.1161084622145,169.89730010561746 L 375.817646548152,170.25733886294168 L 374.5254559963942,170.6109841876487 L 373.2396817654372,170.95821319155496 L 371.96047644317156,171.29901061587137 L 370.68798498809343,171.63336120180887 L 369.42233709990984,171.96124206118387 L 368.1636853665114,172.28264556460184 L 366.91218237578875,172.59754119448465 L 365.6679578274489,172.90591369204324 L 364.43115667998796,173.20774779848855 L 363.20193152129656,173.50303588442605 L 361.9804273098708,173.7917398028831 L 360.7667813748122,174.07385192446512 L 359.56113867461687,174.34936461977762 L 358.36364416778093,174.61823974184793 L 357.17444281280046,174.88047729067605 L 355.99367956817156,175.13604674868387 L 354.8214993923903,175.38494048647684 L 353.6580396145583,175.62712798647684 L 352.5034528225661,175.86260161928934 L 351.3578763455153,176.09134612612527 L 350.22146277129656,176.31333861880105 L 349.09434179961687,176.5285562091331 L 347.9766736477614,176.73699126772684 L 346.8685880154372,176.93861327700418 L 345.77024511992937,177.13342223696512 L 344.68176703155046,177.321380000637 L 343.60332159698015,177.5024865680198 L 342.53503851592546,177.67671142153543 L 341.47706656157976,177.84404693178934 L 340.42954687774187,178.00447021059793 L 339.3926244229079,178.15795836977762 L 338.3664441555739,178.30450377993387 L 337.351151034236,178.44407592348855 L 336.34688620269304,178.57667480044168 L 335.35379843413835,178.7022622638206 L 334.3720288723708,178.82083831362527 L 333.40171866118914,178.93237243227762 L 332.4430165737868,179.0368569903831 L 331.4960637539626,179.13426147036355 L 330.56100897490984,179.2245782428245 L 329.63798956573015,179.30779204897684 L 328.72715429961687,179.38387237124246 L 327.8286481350661,179.45281158022684 L 326.94260840117937,179.5145944171409 L 326.06918768584734,179.56919036440652 L 325.20852331817156,179.61659179262918 L 324.3607640713454,179.6567834430198 L 323.52605108916765,179.68973479800027 L 322.70452933013445,179.71543822817605 L 321.8963399380446,179.73387084536355 L 321.10163550078875,179.7450173907737 L 320.32054953277117,179.74886260561746 L 319.5532346218825,179.7453836017112 L 318.79983191192156,179.7345651202659 L 318.0604825466872,179.71639190249246 L 317.33533148467546,179.6908410602073 L 316.62452749907976,179.65788970522684 L 315.9282117336989,179.61753783755105 L 315.2465253323317,179.56975493960184 L 314.57961706817156,179.5145181231956 L 313.92762808501726,179.4518273883323 L 313.2907033413649,179.38164458803934 L 312.6689877957106,179.30396972231668 L 312.0626225918532,179.2187722735862 L 311.47175268828875,179.12603698305887 L 310.8965268582106,179.02575622134012 L 310.337084338069,178.91789947085184 L 309.79357008636003,178.80245147280496 L 309.26612906157976,178.67939696841043 L 308.75490431487566,178.54872069887918 L 308.26004271209246,178.41039977602762 L 307.78168348968035,178.26441131167215 L 307.31997351348406,178.11075530581277 L 306.8750577419997,177.94940124087137 L 306.44707731902605,177.78032622866434 L 306.0361791104079,177.60353026919168 L 305.6425080746413,177.41897521548074 L 305.26620344817644,177.226653438137 L 304.9074140042067,177.02654967837137 L 304.56628088653093,176.8186486773948 L 304.2429509609938,176.60291991762918 L 303.9375653713942,176.37934814028543 L 303.65027098357683,176.14792571596902 L 303.3812089413405,175.90862975649637 L 303.13052611052996,175.66143737368387 L 302.898363634944,175.406340938137 L 302.6848683804274,175.14331756167215 L 302.490181490779,174.87234435610574 L 302.31445173919207,174.5934060626487 L 302.15781836211687,174.306487422512 L 302.0204263180495,174.01157317690652 L 301.90242247283464,173.7086404376487 L 301.80428938567644,173.3987039142112 L 301.7262826412917,173.082854610012 L 301.6682782620192,172.76116118960184 L 301.63015417754656,172.4337075763206 L 301.61178450286394,172.10056243471902 L 301.61304716765886,171.76180205874246 L 301.6338201016188,171.4175027423362 L 301.6739793270827,171.06774840884012 L 301.7333989590407,170.7126153521995 L 301.811958834529,170.35217223696512 L 301.90953306853777,169.9864953570823 L 302.0260014981032,169.6156686358909 L 302.1612382382155,169.2397683673362 L 302.31511931121355,168.85886321596902 L 302.4875245541335,168.47303710512918 L 302.67832617461687,168.08235869936746 L 302.8874059170485,167.6869119220237 L 303.11463598907,167.28677306704324 L 303.3598943203688,166.88201079897684 L 303.6230588406325,166.47271667055887 L 303.9040055721999,166.0589517169456 L 304.20261053740984,165.64079986147684 L 304.5187516659499,165.2183297687034 L 304.85230498015886,164.79163299135965 L 305.203144595027,164.36077819399637 L 305.5711503475905,163.92583404116434 L 305.95619826018816,163.4868844562034 L 306.35816435515886,163.0440133624534 L 306.7769265621901,162.5972817950706 L 307.21235899627214,162.1467736773948 L 307.6643414944411,161.6925729327659 L 308.13274626433855,161.23474822573465 L 308.6174550503493,160.77336822085184 L 309.11834196746355,160.30852447085184 L 309.63528113067156,159.84028564028543 L 310.1681542843581,159.36872802309793 L 310.71683554351335,158.89393554262918 L 311.28120093047625,158.41596923403543 L 311.8611264675856,157.93492065005105 L 312.45649389922625,157.45086608462137 L 313.0671735256911,156.96386657290262 L 313.69304327666765,156.47401366762918 L 314.33398108184343,155.98138366274637 L 314.98986487090593,155.48604522280496 L 315.6605687588454,154.98807464175027 L 316.3459706753493,154.48755584292215 L 317.04594855010515,153.98455749087137 L 317.7603764981032,153.47916350893777 L 318.48913244903093,152.97144256167215 L 319.2320905178786,152.46147857241434 L 319.98913244903093,151.94934783510965 L 320.7601323574782,151.43511901430887 L 321.5449643582106,150.91887603335184 L 322.34351019561296,150.40069518618387 L 323.1556401699782,149.88064513735574 L 323.9812360256911,149.3588098102073 L 324.82017187774187,148.83526549868387 L 325.67232565581804,148.31008849673074 L 326.5375752896071,147.7833474688987 L 327.4157948940993,147.25512633852762 L 328.30685858428484,146.7255090289573 L 329.2106481045485,146.19455657534402 L 330.1270413845778,145.66235290102762 L 331.0559087246657,145.1289742999534 L 331.99713186919695,144.5945046954612 L 332.9505811184645,144.0590051227073 L 333.91614203155046,143.52255950503152 L 334.89368490874773,142.98524413637918 L 335.8830876797438,142.44714294009012 L 336.8842320889235,141.9083169513206 L 337.8969846218825,141.36885772280496 L 338.9212308377028,140.82883391909402 L 339.9568410366774,140.2883218341331 L 341.0036969631911,139.747405391262 L 342.06167273223406,139.20615325503152 L 343.13064245879656,138.664641719387 L 344.2104917019606,138.1229470782737 L 345.3010907620192,137.58115325503152 L 346.4023099392653,137.0393289142112 L 347.51403479278093,136.49755797915262 L 348.6361432522536,135.95590911440652 L 349.76850561797625,135.41445861391824 L 350.9109998196364,134.87329040102762 L 352.0635114163161,134.33248076967996 L 353.22590307891375,133.79209838442605 L 354.3980603665114,133.25222716860574 L 355.579853579402,132.7129357867698 L 356.77116827666765,132.1743081622581 L 357.97187475860125,131.63641295962137 L 359.1818433254958,131.09934173159402 L 360.4009671658278,130.5631555133323 L 361.6291089504958,130.02793822817605 L 362.8661542385817,129.49375854067605 L 364.1119733303786,128.96070800356668 L 365.36645178496843,128.42884765200418 L 366.6294522732497,127.8982614093284 L 367.90086035430437,127.36902556948465 L 369.18055395782,126.84121642641824 L 370.4684033840895,126.31491027407449 L 371.764294192195,125.79018340639871 L 373.06809668242937,125.26711211733621 L 374.3796811550856,124.7457727008323 L 375.6989407986403,124.22623382143777 L 377.02573828399187,123.70859466128152 L 378.3599515408278,123.19290862612527 L 379.70146612823015,122.67925963930887 L 381.05015234649187,122.16772399477762 L 382.40588812530046,121.65838561587137 L 383.76855139434343,121.1513131671409 L 385.13801245391375,120.64658294253152 L 386.51415686309343,120.14427886538309 L 387.89685492217546,119.64446197085184 L 389.28598456084734,119.14722381167215 L 390.68142370879656,118.65264068178934 L 392.07839636504656,118.16240630678934 L 393.4721265286208,117.67819915346902 L 394.86245398223406,117.20002685122293 L 396.24924902617937,116.72791228823465 L 397.6323590725661,116.26187072329324 L 399.0116391628981,115.8019250445823 L 400.3869519680739,115.3480905108909 L 401.75815252959734,114.90038238100809 L 403.1250882595778,114.45882354311746 L 404.4876294583083,114.02342544131082 L 405.8456159085036,113.59421096377176 L 407.1989179104567,113.17119536928934 L 408.547382876277,112.75439391665262 L 409.8908582180739,112.34383330874246 L 411.22922186553484,111.93952498965066 L 412.5623212307692,111.54148421816629 L 413.8900037258864,111.14973388247293 L 415.21213202178484,110.76428924135965 L 416.5285535305739,110.38517318301004 L 417.8391461819411,110.01239333681863 L 419.1437421292067,109.64597640566629 L 420.4422040432692,109.28593764834207 L 421.734394595027,108.9322961383323 L 423.0201611965895,108.58506331972879 L 424.29936651885515,108.24426589541238 L 425.5718579739333,107.90991530947488 L 426.8375134915114,107.58203445009988 L 428.0961499661208,107.26063476137918 L 429.34766058623796,106.94573913149637 L 430.59189276397234,106.63736281924051 L 431.8286939114333,106.3355287127952 L 433.05791144073015,106.04024444155496 L 434.27942328155046,105.75154052309793 L 435.4930615872145,105.46942458681863 L 436.69870428740984,105.1939157062034 L 437.8961987942458,104.92503676943582 L 439.0853925198317,104.66280303530496 L 440.26616339385515,104.40723357729715 L 441.4383435696364,104.15833983950418 L 442.60181097686296,103.91614852480691 L 443.75639776885515,103.68067489199441 L 444.9019666165114,103.45193038515848 L 446.03838019073015,103.22994170717996 L 447.16550116240984,103.01472030215066 L 448.28317694365984,102.80628905825418 L 449.3912549465895,102.60466323427957 L 450.48959784209734,102.4098580890159 L 451.5780683010817,102.22189651064676 L 452.6565289944411,102.04078994326395 L 453.7248120754958,101.86656508974832 L 454.7827802151442,101.69922957949441 L 455.83029608428484,101.53881011538309 L 456.8672223538161,101.38531814150613 L 457.89340643584734,101.23877654604715 L 458.90869574248796,101.0992005877952 L 459.9129529446364,100.96660552553934 L 460.9060407131911,100.84101424746316 L 461.88782171905046,100.72244201235574 L 462.85812811553484,100.61090407900613 L 463.81682257354265,100.50642333559793 L 464.7637830227614,100.4090150409202 L 465.6988416165114,100.31869826845926 L 466.6218610256911,100.23548827700418 L 467.53268866240984,100.15940414004129 L 468.43120245635515,100.09046493105691 L 469.31723456084734,100.02868590884012 L 470.1906629055739,99.97408614687723 L 471.05131964385515,99.92668471865457 L 471.8990827053786,99.88649688296121 L 472.7337995022536,99.85354552798074 L 473.5553174465895,99.82784209780496 L 474.36349920928484,99.80940948061746 L 475.15820746123796,99.79825912051004 L 475.9392896145583,99.79441772036355 L 476.7066083401442,99.7978967242698 L 477.46001105010515,99.80871139101785 L 478.1993604153395,99.82688842348855 L 478.9245191067458,99.85243926577371 L 479.6353192776442,99.88538680605691 L 480.33163885772234,99.92574248842996 L 481.0133252590895,99.97352538637918 L 481.68022589385515,100.02875838808816 L 482.3322186917067,100.09145293764871 L 482.9691358059645,100.16163192324441 L 483.5908551663161,100.23931060366434 L 484.1972241848708,100.3245080523948 L 484.78809027373796,100.41723952822488 L 485.3633161038161,100.5175241046409 L 485.9227643460036,100.62538085512918 L 486.46628241240984,100.74082885317605 L 486.9937177151442,100.86388335757059 L 487.50493292510515,100.99455962710184 L 487.99980597198015,101.1328805499534 L 488.4781690090895,101.2788651996116 L 488.93986944854265,101.43252502016824 L 489.384785220027,101.59387908510965 L 489.812763735652,101.76295028261941 L 490.2236676663161,101.93975005678934 L 490.6173444241286,102.12430129580301 L 490.9936414211989,102.31662307314676 L 491.3524365872145,102.51672683291238 L 491.6935620754958,102.72463164858621 L 492.01689581573015,102.94036040835184 L 492.322285220027,103.16392837099832 L 492.6095777004958,103.39535079531473 L 492.87863592803484,103.63464675478738 L 493.12932257354265,103.88183913759988 L 493.3614850491286,104.13693557314676 L 493.574970766902,104.39996276430887 L 493.76965765655046,104.67093596987527 L 493.9453931301833,104.9498742633323 L 494.10202459990984,105.23678908877176 L 494.2394147366286,105.53170714907449 L 494.35742621123796,105.8346398883323 L 494.4555554836989,106.14457259707254 L 494.5335584133864,106.46042190127176 L 494.591572329402,106.78211532168191 L 494.62968878448015,107.10957274966043 L 494.6480603665114,107.44271789126199 L 494.6467938870192,107.78147826723855 L 494.62602667510515,108.12577376894754 L 494.58586554229265,108.47552810244363 L 494.5264478176833,108.83066497378152 L 494.44788031280046,109.1911080890159 L 494.35031561553484,109.55678115420145 L 494.2338452786208,109.92760787539285 L 494.09860663115984,110.3035119586448 L 493.9447217434645,110.68441711001199 L 493.7723279446364,111.07024322085184 L 493.58151678740984,111.46091781191629 L 493.37244085967546,111.85636458926004 L 493.1452069729567,112.25650725893777 L 492.89995245635515,112.66126571230691 L 492.6367841213942,113.07056365542215 L 492.35583929717546,113.48432860903543 L 492.0572400540114,113.90248046450418 L 491.74109320342546,114.32494674258035 L 491.4075360745192,114.7516435199241 L 491.0567059963942,115.18250213198465 L 490.68869452178484,115.61744628481668 L 490.3036542385817,116.05639205508035 L 489.9016766995192,116.49926696352762 L 489.48291449248796,116.94599471621316 L 489.04748968780046,117.39650283388895 L 488.59550909698015,117.85070739321512 L 488.1270947903395,118.30853210024637 L 487.64238409698015,118.76991210512918 L 487.1414990872145,119.23475585512918 L 486.62456183135515,119.70299468569559 L 486.0916943997145,120.17454467348855 L 485.5430036038161,120.64934478335184 L 484.97864203155046,121.12730346255105 L 484.3987164944411,121.60835204653543 L 483.80334906280046,122.09241424135965 L 483.19267706573015,122.57940612368387 L 482.5668073147536,123.0692590289573 L 481.9258618801833,123.56189666323465 L 481.2699780911208,124.05723510317605 L 480.5992780178786,124.55520568423074 L 479.91386847198015,125.05572448305887 L 479.2139020413161,125.55872283510965 L 478.4994702786208,126.06411681704324 L 477.7707105129958,126.57183776430887 L 477.02776007354265,127.08180175356668 L 476.2707105129958,127.59393249087137 L 475.4997144192458,128.10816131167215 L 474.7148786038161,128.62440429262918 L 473.9163403958083,129.14258513979715 L 473.1042066067458,129.66263518862527 L 472.27861456573015,130.1844705157737 L 471.43967108428484,130.70801482729715 L 470.5875134915114,131.23319182925027 L 469.72226385772234,131.7599328570823 L 468.8440595120192,132.28814635805887 L 467.9529920071364,132.8177712970237 L 467.04919867217546,133.348723750637 L 466.1328015774489,133.8809274249534 L 465.2039380520583,134.4142983966331 L 464.262714907527,134.9487756305198 L 463.3092694729567,135.4842752032737 L 462.3437085598708,136.0207208209495 L 461.3661542385817,136.5580285602073 L 460.37675909698015,137.0961373858909 L 459.37561468780046,137.6349557452659 L 458.3628583401442,138.17442260317605 L 457.3386121243239,138.714446406887 L 456.302998110652,139.2549508624534 L 455.25615362823015,139.79587493471902 L 454.19817022979265,140.3371270709495 L 453.12920050323015,140.87863860659402 L 452.0493512600661,141.4203332477073 L 450.958759829402,141.9621270709495 L 449.8575330227614,142.5039514117698 L 448.7458081692458,143.0457223468284 L 447.62370733916765,143.5873712115745 L 446.49133734405046,144.12882171206277 L 445.34885077178484,144.6699899249534 L 444.19633917510515,145.21079955630105 L 443.03393988311296,145.75118194155496 L 441.86179022490984,146.29105315737527 L 440.6799970120192,146.8303445392112 L 439.4886823147536,147.36897216372293 L 438.28796820342546,147.90685973696512 L 437.0779920071364,148.443938594387 L 435.8588757961989,148.9801248126487 L 434.6307263821364,149.51534209780496 L 433.3936963528395,150.04951415591043 L 432.1478620022536,150.58257232241434 L 430.8933911770583,151.11443267397684 L 429.630390688777,151.64501891665262 L 428.35898260772234,152.17425475649637 L 427.0792890042067,152.70206389956277 L 425.79143194854265,153.22837005190652 L 424.4955487698317,153.7530969195823 L 423.19174627959734,154.2761682086448 L 421.8801618069411,154.7975076251487 L 420.5609021633864,155.3170388751487 L 419.23410467803484,155.8346856646995 L 417.8998914211989,156.35037169985574 L 416.5583844631911,156.86402068667215 L 415.20969061553484,157.37554870180887 L 413.8539624661208,157.88489471010965 L 412.4912915676833,158.39196715884012 L 411.12183050811296,158.8966973834495 L 409.7456860989333,159.39900146059793 L 408.3629956692458,159.89881072573465 L 406.9738660305739,160.39604888491434 L 405.57841925323015,160.89063964419168 L 405.5784227932692,160.8906392169456 Z" fill="none" stroke="red" stroke-width="3" /></g></svg>