<?xml version="1.0" encoding="utf-8" ?>
<svg baseProfile="tiny" height="600" shape-rendering="crispEdges" version="1.2" viewBox="-291.0 -95.30232558139537 800.0 418.60465116279073" width="800" xmlns="http://www.w3.org/2000/svg" xmlns:ev="http://www.w3.org/2001/xml-events" xmlns:xlink="http://www.w3.org/1999/xlink"><defs /><g><path d="M 330.2,163.18232558139536 L 330.73,163.79232558139535 L 331.28,164.36232558139537 L 331.83,164.90232558139536 L 332.4,165.40232558139536 L 332.97,165.87232558139536 L 333.56,166.32232558139538 L 334.15999999999997,166.73232558139537 L 334.76,167.12232558139536 L 335.38,167.48232558139537 L 336.0,167.81232558139538 L 336.63,168.13232558139538 L 337.26,168.42232558139537 L 337.90999999999997,168.69232558139538 L 338.56,168.94232558139538 L 339.21,169.18232558139536 L 339.88,169.40232558139536 L 340.54,169.61232558139537 L 341.21,169.80232558139537 L 341.89,169.99232558139536 L 342.57,170.16232558139535 L 343.25,170.33232558139537 L 343.93,170.49232558139536 L 344.62,170.64232558139537 L 345.31,170.79232558139535 L 346.0,170.94232558139538 L 346.69,171.09232558139536 L 347.38,171.24232558139536 L 348.07,171.39232558139537 L 348.76,171.54232558139535 L 349.45,171.70232558139537 L 350.13,171.87232558139536 L 350.82,172.04232558139535 L 351.5,172.22232558139535 L 352.18,172.42232558139537 L 352.86,172.63232558139538 L 353.53,172.85232558139535 L 354.2,173.08232558139537 L 354.86,173.34232558139536 L 355.52,173.61232558139537 L 356.17,173.90232558139536 L 356.82,174.21232558139536 L 357.46,174.55232558139537 L 358.09000000000003,174.91232558139535 L 358.72,175.30232558139537 L 359.33,175.71232558139536 L 359.94,176.15232558139536 L 360.54,176.62232558139536 L 361.13,177.13232558139538 L 361.71,177.67232558139537 L 362.28,178.24232558139536 L 362.84000000000003,178.84232558139536 L 363.38,179.49232558139536 L 363.92,180.17232558139537 L 364.44,180.90232558139536 L 364.95,181.67232558139537 L 365.45,182.48232558139537 L 365.94,183.33232558139537 L 366.4,184.23232558139537 L 366.86,185.18232558139536 L 367.3,186.18232558139536 L 367.72,187.23232558139537 L 368.13,188.33232558139537 L 368.4,189.15232558139536 L 368.65,189.99232558139536 L 368.87,190.87232558139536 L 369.06,191.77232558139536 L 369.23,192.70232558139537 L 369.38,193.65232558139536 L 369.51,194.63232558139538 L 369.61,195.63232558139538 L 369.7,196.64232558139537 L 369.76,197.68232558139536 L 369.8,198.73232558139537 L 369.83,199.79232558139535 L 369.83,200.86232558139537 L 369.82,201.95232558139537 L 369.79,203.04232558139535 L 369.74,204.14232558139537 L 369.68,205.24232558139536 L 369.6,206.34232558139536 L 369.5,207.45232558139537 L 369.39,208.56232558139538 L 369.27,209.66232558139535 L 369.13,210.76232558139537 L 368.98,211.85232558139535 L 368.82,212.93232558139536 L 368.65,214.00232558139538 L 368.47,215.06232558139538 L 368.27,216.11232558139537 L 368.07,217.14232558139537 L 367.86,218.16232558139535 L 367.64,219.15232558139536 L 367.40999999999997,220.13232558139538 L 367.17,221.08232558139537 L 366.93,222.01232558139537 L 366.69,222.91232558139535 L 366.43,223.78232558139536 L 366.18,224.62232558139536 L 365.90999999999997,225.43232558139536 L 365.53,226.54232558139537 L 365.14,227.60232558139538 L 364.73,228.60232558139538 L 364.31,229.56232558139536 L 363.87,230.48232558139537 L 363.43,231.34232558139536 L 362.97,232.17232558139537 L 362.5,232.95232558139537 L 362.01,233.69232558139535 L 361.52,234.39232558139537 L 361.02,235.05232558139537 L 360.5,235.67232558139537 L 359.98,236.26232558139537 L 359.44,236.82232558139538 L 358.9,237.34232558139536 L 358.34000000000003,237.82232558139538 L 357.78,238.28232558139536 L 357.21,238.71232558139536 L 356.62,239.11232558139537 L 356.03,239.48232558139537 L 355.44,239.83232558139537 L 354.83,240.16232558139538 L 354.22,240.46232558139536 L 353.6,240.74232558139536 L 352.97,241.00232558139535 L 352.33,241.24232558139536 L 351.69,241.46232558139536 L 351.05,241.67232558139537 L 350.39,241.86232558139537 L 349.73,242.04232558139537 L 349.07,242.20232558139537 L 348.4,242.36232558139537 L 347.72,242.51232558139537 L 347.05,242.64232558139537 L 346.36,242.77232558139536 L 345.68,242.90232558139536 L 344.99,243.02232558139536 L 344.29,243.14232558139537 L 343.59000000000003,243.25232558139535 L 342.89,243.37232558139536 L 342.19,243.49232558139536 L 341.49,243.60232558139538 L 340.78,243.73232558139537 L 340.07,243.85232558139538 L 339.36,243.99232558139536 L 338.65,244.13232558139538 L 337.94,244.28232558139536 L 337.22,244.44232558139535 L 336.51,244.61232558139537 L 335.8,244.79232558139537 L 335.08,244.99232558139536 L 334.37,245.20232558139537 L 333.65999999999997,245.43232558139536 L 332.95,245.68232558139536 L 332.24,245.95232558139537 L 331.53,246.24232558139536 L 330.83,246.55232558139537 L 330.12,246.88232558139538 L 329.42,247.24232558139536 L 328.72,247.63232558139538 L 328.03,248.04232558139537 L 327.33,248.48232558139537 L 326.65,248.95232558139537 L 325.96,249.45232558139537 L 325.28,249.98232558139537 L 324.13,250.96232558139536" fill="none" stroke="blue" stroke-width="3" /><path d="M 461.74,164.65232558139536 L 461.11,165.39232558139537 L 460.48,166.09232558139536 L 459.83000000000004,166.75232558139538 L 459.18,167.37232558139536 L 458.52,167.96232558139536 L 457.85,168.50232558139538 L 457.16999999999996,169.02232558139536 L 456.49,169.50232558139538 L 455.8,169.95232558139537 L 455.1,170.36232558139537 L 454.39,170.75232558139538 L 453.68,171.11232558139537 L 452.95,171.44232558139538 L 452.23,171.74232558139536 L 451.49,172.02232558139536 L 450.75,172.28232558139536 L 450.0,172.51232558139537 L 449.25,172.72232558139535 L 448.49,172.90232558139536 L 447.72,173.07232558139538 L 446.95,173.22232558139535 L 446.16999999999996,173.36232558139537 L 445.39,173.47232558139535 L 444.61,173.57232558139538 L 443.82,173.66232558139535 L 443.02,173.74232558139536 L 442.22,173.80232558139537 L 441.40999999999997,173.85232558139535 L 440.6,173.90232558139536 L 439.78999999999996,173.93232558139536 L 438.97,173.96232558139536 L 438.15,173.98232558139537 L 437.33000000000004,174.00232558139538 L 436.5,174.02232558139536 L 435.66999999999996,174.03232558139536 L 434.84000000000003,174.04232558139535 L 434.0,174.06232558139538 L 433.15999999999997,174.07232558139538 L 432.32,174.09232558139536 L 431.48,174.10232558139535 L 430.64,174.13232558139538 L 429.78999999999996,174.16232558139535 L 428.94,174.20232558139537 L 428.09000000000003,174.24232558139536 L 427.24,174.30232558139537 L 426.39,174.36232558139537 L 425.53,174.44232558139538 L 424.68,174.53232558139536 L 423.82,174.63232558139538 L 422.97,174.75232558139538 L 422.11,174.89232558139537 L 421.26,175.04232558139535 L 420.4,175.21232558139536 L 419.53999999999996,175.40232558139536 L 418.69,175.62232558139536 L 417.84000000000003,175.85232558139535 L 416.98,176.11232558139537 L 416.13,176.39232558139537 L 415.28,176.70232558139537 L 414.43,177.03232558139536 L 413.58,177.40232558139536 L 412.73,177.79232558139535 L 411.89,178.21232558139536 L 411.04,178.66232558139535 L 410.2,179.15232558139536 L 409.37,179.67232558139537 L 408.52,180.23232558139537 L 407.7,180.80232558139537 L 406.89,181.38232558139538 L 406.11,181.98232558139537 L 405.35,182.58232558139537 L 404.61,183.20232558139537 L 403.89,183.84232558139536 L 403.19,184.48232558139537 L 402.51,185.13232558139538 L 401.85,185.80232558139537 L 401.21,186.48232558139537 L 400.6,187.16232558139535 L 400.0,187.86232558139537 L 399.42,188.56232558139538 L 398.87,189.28232558139536 L 398.33,190.00232558139538 L 397.82,190.73232558139537 L 397.32,191.47232558139535 L 396.85,192.22232558139535 L 396.4,192.98232558139537 L 395.96,193.74232558139536 L 395.55,194.51232558139537 L 395.15999999999997,195.29232558139535 L 394.79,196.07232558139538 L 394.43,196.86232558139537 L 394.1,197.66232558139535 L 393.79,198.46232558139536 L 393.5,199.26232558139537 L 393.22,200.07232558139538 L 392.97,200.88232558139538 L 392.74,201.70232558139537 L 392.53,202.52232558139536 L 392.33,203.35232558139535 L 392.15999999999997,204.18232558139536 L 392.01,205.01232558139537 L 391.88,205.84232558139536 L 391.76,206.67232558139537 L 391.67,207.51232558139537 L 391.59000000000003,208.35232558139535 L 391.54,209.19232558139538 L 391.5,210.03232558139536 L 391.49,210.87232558139536 L 391.49,211.71232558139536 L 391.51,212.55232558139537 L 391.56,213.39232558139537 L 391.62,214.23232558139537 L 391.7,215.06232558139538 L 391.8,215.90232558139536 L 391.92,216.73232558139537 L 392.06,217.57232558139538 L 392.22,218.40232558139536 L 392.4,219.22232558139535 L 392.59000000000003,220.05232558139537 L 392.81,220.87232558139536 L 393.04,221.68232558139536 L 393.3,222.49232558139536 L 393.57,223.30232558139537 L 393.86,224.10232558139538 L 394.17,224.90232558139536 L 394.5,225.69232558139535 L 394.85,226.48232558139537 L 395.22,227.26232558139537 L 395.6,228.03232558139536 L 396.01,228.80232558139537 L 396.43,229.56232558139536 L 396.87,230.31232558139536 L 397.33,231.06232558139536 L 397.81,231.80232558139537 L 398.31,232.52232558139536 L 398.83,233.24232558139536 L 399.36,233.95232558139537 L 399.90999999999997,234.66232558139538 L 400.49,235.35232558139538 L 401.08,236.03232558139536 L 401.68,236.70232558139537 L 402.31,237.36232558139537 L 402.96,238.01232558139537 L 403.62,238.65232558139536 L 404.3,239.28232558139536 L 405.01,239.89232558139537 L 405.73,240.48232558139537 L 406.46,241.04232558139537 L 407.21,241.58232558139537 L 407.97,242.10232558139538 L 408.74,242.59232558139536 L 409.52,243.07232558139538 L 410.31,243.52232558139536 L 411.11,243.95232558139537 L 411.93,244.37232558139536 L 412.75,244.77232558139536 L 413.58,245.15232558139536 L 414.42,245.52232558139536 L 415.26,245.88232558139538 L 416.11,246.22232558139535 L 416.97,246.55232558139537 L 417.83,246.87232558139536 L 418.7,247.18232558139536 L 419.58000000000004,247.49232558139536 L 420.45,247.78232558139536 L 421.33000000000004,248.07232558139538 L 422.22,248.36232558139537 L 423.1,248.64232558139537 L 423.99,248.91232558139538 L 424.88,249.19232558139535 L 425.77,249.46232558139536 L 426.65,249.73232558139537 L 427.53999999999996,250.01232558139537 L 428.43,250.29232558139537 L 429.31,250.57232558139538 L 430.2,250.85232558139538 L 431.08000000000004,251.14232558139537 L 431.95,251.43232558139536 L 432.83000000000004,251.74232558139536 L 433.69,252.05232558139537 L 434.56,252.37232558139536 L 435.40999999999997,252.70232558139537 L 436.27,253.04232558139537 L 437.11,253.40232558139536 L 437.95,253.77232558139536 L 438.77,254.15232558139536 L 439.6,254.55232558139537 L 440.40999999999997,254.97232558139535 L 441.21000000000004,255.40232558139536 L 442.0,255.86232558139537 L 442.78,256.33232558139537 L 443.55,256.83232558139537 L 444.31,257.34232558139536 L 445.05,257.8823255813954 L 445.78,258.45232558139537 L 446.5,259.0423255813954 L 447.21000000000004,259.65232558139536 L 447.9,260.2923255813954 L 448.57,260.96232558139536 L 449.23,261.6623255813954 L 449.87,262.40232558139536 L 450.5,263.1623255813954 L 451.1,263.95232558139537 L 451.74,264.65232558139536" fill="none" stroke="green" stroke-width="3" /><path d="M 312.5,209.80232558139537 L 312.51,208.79232558139535 L 312.52,207.79232558139535 L 312.56,206.78232558139536 L 312.6,205.78232558139536 L 312.65,204.77232558139536 L 312.72,203.77232558139536 L 312.8,202.76232558139537 L 312.89,201.76232558139537 L 313.0,200.76232558139537 L 313.12,199.76232558139537 L 313.25,198.76232558139537 L 313.39,197.77232558139536 L 313.54,196.77232558139536 L 313.71,195.78232558139536 L 313.89,194.79232558139535 L 314.08,193.80232558139537 L 314.28,192.82232558139538 L 314.49,191.83232558139537 L 314.72,190.85232558139535 L 314.96,189.88232558139538 L 315.21,188.90232558139536 L 315.47,187.93232558139536 L 315.74,186.96232558139536 L 316.03,186.00232558139538 L 316.33,185.04232558139535 L 316.64,184.08232558139537 L 316.96,183.12232558139536 L 317.29,182.18232558139536 L 317.64,181.23232558139537 L 317.99,180.29232558139535 L 318.36,179.35232558139535 L 318.74,178.42232558139537 L 319.13,177.49232558139536 L 319.53,176.57232558139538 L 319.95,175.65232558139536 L 320.37,174.74232558139536 L 320.81,173.83232558139537 L 321.26,172.93232558139536 L 321.71,172.04232558139535 L 322.18,171.15232558139536 L 322.66,170.26232558139537 L 323.15,169.38232558139538 L 323.65,168.51232558139537 L 324.17,167.64232558139537 L 324.69,166.78232558139536 L 325.22,165.93232558139536 L 325.77,165.08232558139537 L 326.32,164.24232558139536 L 326.88,163.41232558139535 L 327.46,162.58232558139537 L 328.04,161.76232558139537 L 328.64,160.95232558139537 L 329.24,160.15232558139536 L 329.86,159.35232558139535 L 330.48,158.56232558139536 L 331.11,157.78232558139536 L 331.76,157.01232558139537 L 332.40999999999997,156.24232558139536 L 333.07,155.48232558139537 L 333.74,154.73232558139537 L 334.42,153.99232558139536 L 335.11,153.26232558139537 L 335.81,152.53232558139536 L 336.52,151.82232558139538 L 337.23,151.11232558139537 L 337.96,150.41232558139535 L 338.69,149.72232558139535 L 339.43,149.04232558139537 L 340.18,148.37232558139536 L 340.94,147.71232558139536 L 341.71,147.06232558139536 L 342.48,146.41232558139535 L 343.26,145.78232558139536 L 344.05,145.16232558139535 L 344.85,144.54232558139537 L 345.65,143.94232558139538 L 346.46,143.34232558139536 L 347.28,142.76232558139537 L 348.11,142.18232558139536 L 348.94,141.62232558139536 L 349.78,141.07232558139538 L 350.63,140.52232558139536 L 351.48,139.99232558139536 L 352.34000000000003,139.47232558139535 L 353.21,138.95232558139537 L 354.08,138.45232558139537 L 354.96,137.96232558139536 L 355.85,137.48232558139537 L 356.74,137.01232558139537 L 357.63,136.56232558139536 L 358.53,136.11232558139537 L 359.44,135.67232558139537 L 360.35,135.25232558139538 L 361.27,134.83232558139537 L 362.19,134.43232558139536 L 363.12,134.04232558139537 L 364.05,133.66232558139535 L 364.99,133.29232558139537 L 365.93,132.94232558139538 L 366.88,132.59232558139536 L 367.82,132.26232558139537 L 368.78,131.94232558139538 L 369.74,131.63232558139538 L 370.7,131.33232558139537 L 371.65999999999997,131.04232558139537 L 372.63,130.77232558139536 L 373.6,130.51232558139537 L 374.58,130.26232558139537 L 375.55,130.02232558139536 L 376.53,129.79232558139537 L 377.52,129.58232558139537 L 378.5,129.38232558139538 L 379.49,129.19232558139538 L 380.48,129.01232558139537 L 381.47,128.84232558139536 L 382.47,128.69232558139538 L 383.46,128.55232558139537 L 384.46,128.42232558139537 L 385.46,128.30232558139537 L 386.46,128.19232558139538 L 387.46,128.10232558139535 L 388.47,128.02232558139536 L 389.47,127.95232558139537 L 390.48,127.90232558139536 L 391.48,127.86232558139537 L 392.49,127.82232558139538 L 393.49,127.81232558139536 L 394.5,127.80232558139537 L 395.51,127.81232558139536 L 396.51,127.82232558139538 L 397.52,127.86232558139537 L 398.52,127.90232558139536 L 399.53,127.95232558139537 L 400.53,128.02232558139536 L 401.54,128.10232558139535 L 402.54,128.19232558139538 L 403.54,128.30232558139537 L 404.54,128.42232558139537 L 405.54,128.55232558139537 L 406.53,128.69232558139538 L 407.53,128.84232558139536 L 408.52,129.01232558139537 L 409.51,129.19232558139538 L 410.5,129.38232558139538 L 411.48,129.58232558139537 L 412.47,129.79232558139537 L 413.45,130.02232558139536 L 414.42,130.26232558139537 L 415.4,130.51232558139537 L 416.37,130.77232558139536 L 417.34000000000003,131.04232558139537 L 418.3,131.33232558139537 L 419.26,131.63232558139538 L 420.22,131.94232558139538 L 421.18,132.26232558139537 L 422.12,132.59232558139536 L 423.07,132.94232558139538 L 424.01,133.29232558139537 L 424.95,133.66232558139535 L 425.88,134.04232558139537 L 426.81,134.43232558139536 L 427.73,134.83232558139537 L 428.65,135.25232558139538 L 429.56,135.67232558139537 L 430.47,136.11232558139537 L 431.37,136.56232558139536 L 432.26,137.01232558139537 L 433.15,137.48232558139537 L 434.03999999999996,137.96232558139536 L 434.91999999999996,138.45232558139537 L 435.78999999999996,138.95232558139537 L 436.65999999999997,139.47232558139535 L 437.52,139.99232558139536 L 438.37,140.52232558139536 L 439.22,141.07232558139538 L 440.06,141.62232558139536 L 440.89,142.18232558139536 L 441.72,142.76232558139537 L 442.53999999999996,143.34232558139536 L 443.35,143.94232558139538 L 444.15,144.54232558139537 L 444.95,145.16232558139535 L 445.74,145.78232558139536 L 446.52,146.41232558139535 L 447.28999999999996,147.06232558139536 L 448.06,147.71232558139536 L 448.82,148.37232558139536 L 449.57,149.04232558139537 L 450.31,149.72232558139535 L 451.03999999999996,150.41232558139535 L 451.77,151.11232558139537 L 452.48,151.82232558139538 L 453.19,152.53232558139536 L 453.89,153.26232558139537 L 454.58000000000004,153.99232558139536 L 455.26,154.73232558139537 L 455.93,155.48232558139537 L 456.59000000000003,156.24232558139536 L 457.24,157.01232558139537 L 457.89,157.78232558139536 L 458.52,158.56232558139536 L 459.14,159.35232558139535 L 459.76,160.15232558139536 L 460.36,160.95232558139537 L 460.96000000000004,161.76232558139537 L 461.53999999999996,162.58232558139537 L 462.12,163.41232558139535 L 462.68,164.24232558139536 L 463.23,165.08232558139537 L 463.78,165.93232558139536 L 464.31,166.78232558139536 L 464.83000000000004,167.64232558139537 L 465.35,168.51232558139537 L 465.85,169.38232558139538 L 466.34000000000003,170.26232558139537 L 466.82,171.15232558139536 L 467.28999999999996,172.04232558139535 L 467.74,172.93232558139536 L 468.19,173.83232558139537 L 468.63,174.74232558139536 L 469.05,175.65232558139536 L 469.47,176.57232558139538 L 469.87,177.49232558139536 L 470.26,178.42232558139537 L 470.64,179.35232558139535 L 471.01,180.29232558139535 L 471.36,181.23232558139537 L 471.71000000000004,182.18232558139536 L 472.03999999999996,183.12232558139536 L 472.36,184.08232558139537 L 472.66999999999996,185.04232558139535 L 472.97,186.00232558139538 L 473.26,186.96232558139536 L 473.53,187.93232558139536 L 473.78999999999996,188.90232558139536 L 474.03999999999996,189.88232558139538 L 474.28,190.85232558139535 L 474.51,191.83232558139537 L 474.72,192.82232558139538 L 474.91999999999996,193.80232558139537 L 475.11,194.79232558139535 L 475.28999999999996,195.78232558139536 L 475.46000000000004,196.77232558139536 L 475.61,197.77232558139536 L 475.75,198.76232558139537 L 475.88,199.76232558139537 L 476.0,200.76232558139537 L 476.11,201.76232558139537 L 476.2,202.76232558139537 L 476.28,203.77232558139536 L 476.35,204.77232558139536 L 476.4,205.78232558139536 L 476.44,206.78232558139536 L 476.48,207.79232558139535 L 476.49,208.79232558139535 L 476.5,209.80232558139537 L 476.49,210.81232558139538 L 476.48,211.81232558139538 L 476.44,212.82232558139538 L 476.4,213.82232558139538 L 476.35,214.83232558139537 L 476.28,215.83232558139537 L 476.2,216.84232558139536 L 476.11,217.84232558139536 L 476.0,218.84232558139536 L 475.88,219.84232558139536 L 475.75,220.84232558139536 L 475.61,221.83232558139537 L 475.46000000000004,222.83232558139537 L 475.28999999999996,223.82232558139538 L 475.11,224.81232558139536 L 474.91999999999996,225.80232558139537 L 474.72,226.78232558139536 L 474.51,227.77232558139536 L 474.28,228.75232558139535 L 474.03999999999996,229.72232558139535 L 473.78999999999996,230.70232558139537 L 473.53,231.67232558139537 L 473.26,232.64232558139537 L 472.97,233.60232558139538 L 472.66999999999996,234.56232558139536 L 472.36,235.52232558139536 L 472.03999999999996,236.48232558139537 L 471.71000000000004,237.42232558139537 L 471.36,238.37232558139536 L 471.01,239.31232558139536 L 470.64,240.25232558139535 L 470.26,241.18232558139536 L 469.87,242.11232558139537 L 469.47,243.03232558139536 L 469.05,243.95232558139537 L 468.63,244.86232558139537 L 468.19,245.77232558139536 L 467.74,246.67232558139537 L 467.28999999999996,247.56232558139536 L 466.82,248.45232558139537 L 466.34000000000003,249.34232558139536 L 465.85,250.22232558139535 L 465.35,251.09232558139536 L 464.83000000000004,251.96232558139536 L 464.31,252.82232558139538 L 463.78,253.67232558139537 L 463.23,254.52232558139536 L 462.68,255.36232558139537 L 462.12,256.1923255813954 L 461.53999999999996,257.02232558139536 L 460.96000000000004,257.84232558139536 L 460.36,258.65232558139536 L 459.76,259.45232558139537 L 459.14,260.2523255813953 L 458.52,261.0423255813954 L 457.89,261.8223255813954 L 457.24,262.59232558139536 L 456.59000000000003,263.36232558139534 L 455.93,264.12232558139533 L 455.26,264.87232558139533 L 454.58000000000004,265.61232558139534 L 453.89,266.34232558139536 L 453.19,267.0723255813954 L 452.48,267.78232558139536 L 451.77,268.49232558139533 L 451.03999999999996,269.1923255813954 L 450.31,269.8823255813954 L 449.57,270.5623255813954 L 448.82,271.23232558139534 L 448.06,271.89232558139537 L 447.28999999999996,272.5423255813954 L 446.52,273.1923255813954 L 445.74,273.8223255813954 L 444.95,274.4423255813954 L 444.15,275.0623255813954 L 443.35,275.6623255813954 L 442.53999999999996,276.2623255813954 L 441.72,276.84232558139536 L 440.89,277.4223255813954 L 440.06,277.98232558139534 L 439.22,278.53232558139536 L 438.37,279.08232558139537 L 437.52,279.61232558139534 L 436.65999999999997,280.1323255813954 L 435.78999999999996,280.65232558139536 L 434.91999999999996,281.15232558139536 L 434.03999999999996,281.64232558139537 L 433.15,282.12232558139533 L 432.26,282.59232558139536 L 431.37,283.0423255813954 L 430.47,283.49232558139533 L 429.56,283.9323255813954 L 428.65,284.35232558139535 L 427.73,284.77232558139536 L 426.81,285.1723255813954 L 425.88,285.5623255813954 L 424.95,285.9423255813954 L 424.01,286.3123255813954 L 423.07,286.6623255813954 L 422.12,287.0123255813954 L 421.18,287.34232558139536 L 420.22,287.6623255813954 L 419.26,287.97232558139535 L 418.3,288.27232558139536 L 417.34000000000003,288.5623255813954 L 416.37,288.83232558139537 L 415.4,289.09232558139536 L 414.42,289.34232558139536 L 413.45,289.58232558139537 L 412.47,289.8123255813954 L 411.48,290.02232558139536 L 410.5,290.22232558139535 L 409.51,290.4123255813954 L 408.52,290.59232558139536 L 407.53,290.7623255813954 L 406.53,290.9123255813954 L 405.54,291.0523255813954 L 404.54,291.1823255813954 L 403.54,291.3023255813954 L 402.54,291.4123255813954 L 401.54,291.5023255813953 L 400.53,291.58232558139537 L 399.53,291.65232558139536 L 398.52,291.70232558139537 L 397.52,291.74232558139533 L 396.51,291.78232558139536 L 395.51,291.7923255813954 L 394.5,291.8023255813954 L 393.49,291.7923255813954 L 392.49,291.78232558139536 L 391.48,291.74232558139533 L 390.48,291.70232558139537 L 389.47,291.65232558139536 L 388.47,291.58232558139537 L 387.46,291.5023255813953 L 386.46,291.4123255813954 L 385.46,291.3023255813954 L 384.46,291.1823255813954 L 383.46,291.0523255813954 L 382.47,290.9123255813954 L 381.47,290.7623255813954 L 380.48,290.59232558139536 L 379.49,290.4123255813954 L 378.5,290.22232558139535 L 377.52,290.02232558139536 L 376.53,289.8123255813954 L 375.55,289.58232558139537 L 374.58,289.34232558139536 L 373.6,289.09232558139536 L 372.63,288.83232558139537 L 371.65999999999997,288.5623255813954 L 370.7,288.27232558139536 L 369.74,287.97232558139535 L 368.78,287.6623255813954 L 367.82,287.34232558139536 L 366.88,287.0123255813954 L 365.93,286.6623255813954 L 364.99,286.3123255813954 L 364.05,285.9423255813954 L 363.12,285.5623255813954 L 362.19,285.1723255813954 L 361.27,284.77232558139536 L 360.35,284.35232558139535 L 359.44,283.9323255813954 L 358.53,283.49232558139533 L 357.63,283.0423255813954 L 356.74,282.59232558139536 L 355.85,282.12232558139533 L 354.96,281.64232558139537 L 354.08,281.15232558139536 L 353.21,280.65232558139536 L 352.34000000000003,280.1323255813954 L 351.48,279.61232558139534 L 350.63,279.08232558139537 L 349.78,278.53232558139536 L 348.94,277.98232558139534 L 348.11,277.4223255813954 L 347.28,276.84232558139536 L 346.46,276.2623255813954 L 345.65,275.6623255813954 L 344.85,275.0623255813954 L 344.05,274.4423255813954 L 343.26,273.8223255813954 L 342.48,273.1923255813954 L 341.71,272.5423255813954 L 340.94,271.89232558139537 L 340.18,271.23232558139534 L 339.43,270.5623255813954 L 338.69,269.8823255813954 L 337.96,269.1923255813954 L 337.23,268.49232558139533 L 336.52,267.78232558139536 L 335.81,267.0723255813954 L 335.11,266.34232558139536 L 334.42,265.61232558139534 L 333.74,264.87232558139533 L 333.07,264.12232558139533 L 332.40999999999997,263.36232558139534 L 331.76,262.59232558139536 L 331.11,261.8223255813954 L 330.48,261.0423255813954 L 329.86,260.2523255813953 L 329.24,259.45232558139537 L 328.64,258.65232558139536 L 328.04,257.84232558139536 L 327.46,257.02232558139536 L 326.88,256.1923255813954 L 326.32,255.36232558139537 L 325.77,254.52232558139536 L 325.22,253.67232558139537 L 324.69,252.82232558139538 L 324.17,251.96232558139536 L 323.65,251.09232558139536 L 323.15,250.22232558139535 L 322.66,249.34232558139536 L 322.18,248.45232558139537 L 321.71,247.56232558139536 L 321.26,246.67232558139537 L 320.81,245.77232558139536 L 320.37,244.86232558139537 L 319.95,243.95232558139537 L 319.53,243.03232558139536 L 319.13,242.11232558139537 L 318.74,241.18232558139536 L 318.36,240.25232558139535 L 317.99,239.31232558139536 L 317.64,238.37232558139536 L 317.29,237.42232558139537 L 316.96,236.48232558139537 L 316.64,235.52232558139536 L 316.33,234.56232558139536 L 316.03,233.60232558139538 L 315.74,232.64232558139537 L 315.47,231.67232558139537 L 315.21,230.70232558139537 L 314.96,229.72232558139535 L 314.72,228.75232558139535 L 314.49,227.77232558139536 L 314.28,226.78232558139536 L 314.08,225.80232558139537 L 313.89,224.81232558139536 L 313.71,223.82232558139538 L 313.54,222.83232558139537 L 313.39,221.83232558139537 L 313.25,220.84232558139536 L 313.12,219.84232558139536 L 313.0,218.84232558139536 L 312.89,217.84232558139536 L 312.8,216.84232558139536 L 312.72,215.83232558139537 L 312.65,214.83232558139537 L 312.6,213.82232558139538 L 312.56,212.82232558139538 L 312.52,211.81232558139538 L 312.51,210.81232558139538 L 312.5,209.80232558139537 Z" fill="none" stroke="red" stroke-width="3" /><path d="M 292.5,96.80232558139537 L 507.5,96.80232558139537 L 507.5,321.8023255813954 L 292.5,321.8023255813954 L 292.5,96.80232558139537 Z" fill="none" stroke="cyan" stroke-width="3" /></g></svg>